<svg xmlns="http://www.w3.org/2000/svg" xmlns:xlink="http://www.w3.org/1999/xlink" width="1em" height="1em" viewBox="0 0 18 18"><path fill="currentColor" d="M7.65 1a2.525 2.525 0 00-1.095 4.8l-1.683 5.918H2.625c-.307 0-.603.094-.833.269a1.01 1.01 0 00-.417.802v3.14c0 .347.186.626.417.802.23.175.526.269.833.269h12.75c.307 0 .603-.094.833-.27a1.01 1.01 0 00.417-.801v-3.14a1.01 1.01 0 00-.417-.802 1.38 1.38 0 00-.833-.27h-2.247l-1.683-5.916A2.525 2.525 0 0010.35 1zM6.125 3.525C6.125 2.683 6.808 2 7.65 2h2.7a1.525 1.525 0 010 3.05h-2.7a1.525 1.525 0 01-1.525-1.525m1.378 2.6h2.994l1.591 5.593H5.912l1.59-5.593Zm-4.878 6.593h12.75c.108 0 .186.033.227.065l.023.02v3.111l-.023.02a.4.4 0 01-.227.066H2.625a.4.4 0 01-.227-.065l-.023-.02v-3.112l.023-.02a.4.4 0 01.227-.065m13.003 3.193.001-.003z"/></svg>