<svg xmlns="http://www.w3.org/2000/svg" xmlns:xlink="http://www.w3.org/1999/xlink" width="1em" height="1em" viewBox="0 0 18 18"><path fill="currentColor" d="M1.776 1.974a.5.5 0 01.493-.01l4.101 3.21 4.903-3.226a.5.5 0 01.437.012l4.488 2.328a.5.5 0 01.27.444v10.865a.5.5 0 01-.728.445l-4.274-2.186-4.91 3.197a.5.5 0 01-.44-.015l-4.318-3.294a.5.5 0 01-.266-.442V2.403a.5.5 0 01.244-.429M11.98 12.996l3.488 1.783V5.036l-3.488-1.81zm-1-9.817L6.851 6.054v9.771l4.13-2.847zM5.851 6.03 2.532 3.24v9.762l3.32 2.763V6.03Z"/></svg>