<svg xmlns="http://www.w3.org/2000/svg" xmlns:xlink="http://www.w3.org/1999/xlink" width="1em" height="1em" viewBox="0 0 18 18"><g fill="currentColor"><path d="M7.103 5.499a.5.5 0 01.5-.5h5.578a.5.5 0 010 1H7.603a.5.5 0 01-.5-.5m.5 1.941a.5.5 0 100 1h5.578a.5.5 0 000-1zM3.92 13.38a.5.5 0 000 1h10.256a.5.5 0 000-1z"/><path d="M5.287 1.479a.5.5 0 00-.5.5V4.18H2.693a.5.5 0 00-.5.5v6.21h-.25l-.067.005a.5.5 0 00-.567.495v4.979a.5.5 0 00.5.5h14.382a.5.5 0 00.5-.5V11.39a.5.5 0 00-.519-.5h-.565V1.98a.5.5 0 00-.5-.5h-9.82ZM3.193 5.18h1.594v5.71H3.193zm11.414 5.71h-8.82V2.48h8.82v8.412Zm-12.298 1h13.382v3.979H2.309z"/></g></svg>