<svg xmlns="http://www.w3.org/2000/svg" xmlns:xlink="http://www.w3.org/1999/xlink" width="1em" height="1em" viewBox="0 0 18 18"><path fill="currentColor" d="M5.512 1.847a.5.5 0 00-.39.187l-3.199 3.98a.5.5 0 00-.11.314v9.325a.5.5 0 00.5.5h13.374a.5.5 0 00.5-.5V6.328a.5.5 0 00-.106-.308l-3.114-3.98a.5.5 0 00-.394-.193zm1.29 1v2.98H3.355l2.396-2.98h1.05Zm0 3.98v5.79a.5.5 0 00.5.5h3.8a.5.5 0 00.5-.5v-5.79h3.585v8.326H2.813V6.828H6.8Zm3.8 0v5.29h-2.8v-5.29zm0-1h-2.8v-2.98h2.8zm1 0v-2.98h.727l2.332 2.98z"/></svg>