<svg xmlns="http://www.w3.org/2000/svg" xmlns:xlink="http://www.w3.org/1999/xlink" width="1em" height="1em" viewBox="0 0 18 18"><g fill="currentColor"><path d="M9 5.875a3.125 3.125 0 100 6.25 3.125 3.125 0 000-6.25M6.875 9a2.125 2.125 0 114.25 0 2.125 2.125 0 01-4.25 0"/><path d="M7.44 1.544a.5.5 0 00-.579-.255A8 8 0 003.554 3.14a.5.5 0 00-.108.587 1.75 1.75 0 01-1.57 2.523H1.85a.5.5 0 00-.485.35 8 8 0 00-.204 4.011.5.5 0 00.54.398 1.75 1.75 0 011.923 1.741c0 .43-.155.823-.412 1.128a.5.5 0 00.022.669 8 8 0 003.479 2.121.5.5 0 00.619-.326 1.751 1.751 0 013.334 0 .5.5 0 00.62.326 8 8 0 003.478-2.121.5.5 0 00.022-.67 1.75 1.75 0 011.512-2.87.5.5 0 00.539-.396 8.04 8.04 0 00-.204-4.011.5.5 0 00-.485-.35h-.024a1.75 1.75 0 01-1.57-2.523.5.5 0 00-.109-.587 8 8 0 00-3.307-1.85.5.5 0 00-.579.254 1.75 1.75 0 01-3.12 0ZM4.625 4.5a2.8 2.8 0 00-.135-.854 7 7 0 012.282-1.284 2.75 2.75 0 004.456 0 7 7 0 012.282 1.284 2.75 2.75 0 002.264 3.581 7 7 0 01.154 2.78 2.75 2.75 0 00-2.176 4.133 7 7 0 01-2.33 1.43 2.749 2.749 0 00-4.843 0 7 7 0 01-2.33-1.43 2.75 2.75 0 00-2.176-4.133 7.1 7.1 0 01.153-2.78A2.75 2.75 0 004.625 4.5"/></g></svg>