<svg xmlns="http://www.w3.org/2000/svg" xmlns:xlink="http://www.w3.org/1999/xlink" width="1em" height="1em" viewBox="0 0 18 18"><g fill="currentColor"><path d="M1.71 4.126a10.36 10.36 0 017.26-2.939c2.848 0 5.428 1.136 7.292 2.971a.5.5 0 11-.701.713 9.36 9.36 0 00-6.592-2.684 9.37 9.37 0 00-6.561 2.655.5.5 0 11-.699-.716Z"/><path d="M9 5.031a6 6 0 00-6 6v.022a.5.5 0 11-1 0v-.022a7 7 0 017-7 .5.5 0 010 1m2.896-.375a.5.5 0 00-.415.91A6 6 0 0115 11.032v.005a.5.5 0 001 0v-.005a7 7 0 00-4.104-6.375Z"/><path d="M9 7.875a3.156 3.156 0 00-3.156 3.156v2.844a.5.5 0 11-1 0V11.03a4.156 4.156 0 118.312 0v2.844a.5.5 0 11-1 0V11.03A3.156 3.156 0 009 7.875"/><path d="M8.281 11.438a.719.719 0 011.438 0v3.26a.5.5 0 001 0v-3.26a1.719 1.719 0 00-3.438 0v3.26c0 .471-.357 1.012-.829 1.13a.5.5 0 10.24.97c1-.247 1.59-1.258 1.59-2.1v-3.26Z"/></g></svg>