<svg xmlns="http://www.w3.org/2000/svg" xmlns:xlink="http://www.w3.org/1999/xlink" width="1em" height="1em" viewBox="0 0 18 18"><path fill="currentColor" d="M1.5 4c0-.55.313-1.005.728-1.355.416-.352.99-.646 1.654-.884C5.216 1.285 7.025 1 9 1s3.784.285 5.118.761c.665.238 1.238.532 1.655.884.414.35.727.806.727 1.355v10c0 .55-.313 1.005-.727 1.355-.417.352-.99.646-1.655.884C12.784 16.715 10.975 17 9 17s-3.784-.285-5.118-.761c-.665-.238-1.238-.532-1.654-.884-.415-.35-.728-.806-.728-1.355zm1 0c0 .14.079.343.373.591.291.246.743.49 1.345.706C5.418 5.725 7.108 6 9 6s3.582-.275 4.782-.703c.602-.215 1.054-.46 1.345-.706.294-.248.373-.45.373-.591s-.079-.343-.373-.591c-.291-.246-.743-.49-1.345-.706C12.582 2.275 10.892 2 9 2s-3.582.275-4.782.703c-.602.215-1.054.46-1.345.706-.294.248-.373.45-.373.591m11.618 2.239C12.784 6.715 10.975 7 9 7s-3.784-.285-5.118-.761c-.53-.19-1.001-.415-1.382-.677v1.79c0 .245.114.52.406.817.294.298.745.59 1.341.845 1.191.51 2.871.838 4.753.838s3.562-.328 4.753-.838c.596-.256 1.047-.547 1.341-.845.292-.296.406-.572.406-.817v-1.79c-.38.262-.852.487-1.382.677M2.5 11.5c0 .022.02.155.33.364.293.198.749.395 1.358.57C5.398 12.779 7.1 13 9 13s3.602-.22 4.812-.566c.61-.175 1.065-.372 1.358-.57.31-.21.33-.342.33-.364V9.147a5.8 5.8 0 01-1.353.786c-1.343.575-3.163.92-5.147.92s-3.804-.345-5.147-.92A5.8 5.8 0 012.5 9.147zm0 1.335V14c0 .14.079.343.373.591.291.247.743.49 1.345.706 1.2.428 2.89.703 4.782.703s3.582-.275 4.782-.703c.602-.215 1.054-.46 1.345-.706.294-.248.373-.45.373-.591v-1.165c-.386.218-.869.405-1.413.56C12.764 13.773 10.966 14 9 14s-3.764-.227-5.087-.605c-.544-.155-1.027-.342-1.413-.56"/></svg>