<svg xmlns="http://www.w3.org/2000/svg" xmlns:xlink="http://www.w3.org/1999/xlink" width="1em" height="1em" viewBox="0 0 18 18"><g fill="currentColor"><path d="M3.904 8.591a5.096 5.096 0 0110.192 0h1a6.096 6.096 0 00-12.192 0zm1.954 4.729a.679.679 0 11-1.358 0 .679.679 0 011.358 0m1.279.678a.679.679 0 100-1.357.679.679 0 000 1.357"/><path d="M2.504 10a.5.5 0 00-.5.5v5.568a.5.5 0 00.5.5h12.992a.5.5 0 00.5-.5V10.5a.5.5 0 00-.5-.5H9.5V7.911h-1v2.09zm.5 5.568V11h11.992v4.568z"/><path d="M9 5.76a2.83 2.83 0 00-2.83 2.831h-1a3.83 3.83 0 117.66 0h-1A2.83 2.83 0 009 5.761Z"/></g></svg>