<svg xmlns="http://www.w3.org/2000/svg" xmlns:xlink="http://www.w3.org/1999/xlink" width="1em" height="1em" viewBox="0 0 18 18"><path fill="currentColor" d="M2 1.75a.5.5 0 00-.5.5v6a.5.5 0 00.5.5h6a.5.5 0 00.5-.5v-6a.5.5 0 00-.5-.5zm.5 6v-5h5v5zm7.5-6a.5.5 0 00-.5.5v6a.5.5 0 00.5.5h6a.5.5 0 00.5-.5v-6a.5.5 0 00-.5-.5zm.5 6v-5h5v5zm-9 2.5a.5.5 0 01.5-.5h6a.5.5 0 01.5.5v6a.5.5 0 01-.5.5H2a.5.5 0 01-.5-.5zm1 .5v5h5v-5zm7.5-1a.5.5 0 00-.5.5v6a.5.5 0 00.5.5h6a.5.5 0 00.5-.5v-6a.5.5 0 00-.5-.5zm.5 6v-5h5v5z"/></svg>