<svg xmlns="http://www.w3.org/2000/svg" xmlns:xlink="http://www.w3.org/1999/xlink" width="1em" height="1em" viewBox="0 0 18 18"><path fill="currentColor" d="M1.612 3.49a1.878 1.878 0 113.511.926l1.13 1.13.009.01a2.9 2.9 0 012.05-.844c.623 0 1.202.196 1.676.53l.036-.04.689-.688a.5.5 0 01.107-.082 1.878 1.878 0 11.682.682.5.5 0 01-.082.107l-.689.689-.04.036a2.9 2.9 0 01.531 1.676 2.9 2.9 0 01-.531 1.677.5.5 0 01.077.077l1.775 2.22a2.566 2.566 0 11-.754.658l-1.801-2.252a2.9 2.9 0 01-1.677.531c-.35 0-.686-.062-.997-.175l-.027.029-1.122 1.121a2.566 2.566 0 11-.776-.639l1.033-1.032A2.9 2.9 0 015.4 7.622a2.9 2.9 0 01.29-1.268.5.5 0 01-.143-.1l-1.131-1.13A1.878 1.878 0 011.612 3.49m1.878-.878a.878.878 0 100 1.755.878.878 0 000-1.755m.688 8.954a1.566 1.566 0 100 3.133 1.566 1.566 0 000-3.133m8.077 2.256a1.566 1.566 0 103.133 0 1.566 1.566 0 00-3.133 0m-3.944-8.11a1.91 1.91 0 100 3.821 1.91 1.91 0 000-3.821m3.255-2.222a.878.878 0 101.756 0 .878.878 0 00-1.756 0"/></svg>