<svg xmlns="http://www.w3.org/2000/svg" xmlns:xlink="http://www.w3.org/1999/xlink" width="1em" height="1em" viewBox="0 0 16 16"><path fill="currentColor" d="M7.095 2.252a1 1 0 011.81 0l1.288 2.744 2.922.449a1 1 0 01.563 1.687l-2.144 2.196.502 3.075a1 1 0 01-1.471 1.036L8 12.021l-2.565 1.418a1 1 0 01-1.47-1.036l.5-3.075-2.143-2.196a1 1 0 01.563-1.687l2.922-.45zM8 2.677 6.712 5.42a1 1 0 01-.753.563l-2.922.45 2.144 2.195a1 1 0 01.272.86l-.502 3.075 2.565-1.418a1 1 0 01.968 0l2.565 1.418-.502-3.075a1 1 0 01.272-.86l2.144-2.196-2.921-.449a1 1 0 01-.754-.563z"/></svg>