<svg xmlns="http://www.w3.org/2000/svg" xmlns:xlink="http://www.w3.org/1999/xlink" width="1em" height="1em" viewBox="0 0 16 16"><g fill="currentColor"><path d="M9.334 6.833a.5.5 0 01.5.5v4a.5.5 0 01-1 0v-4a.5.5 0 01.5-.5m-2.167.5a.5.5 0 10-1 0v4a.5.5 0 001 0z"/><path d="M11.167 2.666V3.5H14a.5.5 0 010 1h-.833v8.833a1.833 1.833 0 01-1.833 1.833H4.667a1.833 1.833 0 01-1.833-1.833V4.5H2a.5.5 0 010-1h2.833v-.834A1.833 1.833 0 016.668.833h2.667a1.834 1.834 0 011.833 1.833Zm-5.09-.589a.83.83 0 00-.244.59V3.5h4.334v-.834a.833.833 0 00-.833-.833H6.667a.83.83 0 00-.59.244M3.834 4.5v8.833a.833.833 0 00.834.833h6.667a.834.834 0 00.833-.833V4.5z"/></g></svg>