<svg xmlns="http://www.w3.org/2000/svg" xmlns:xlink="http://www.w3.org/1999/xlink" width="1em" height="1em" viewBox="0 0 14 14"><g fill="currentColor"><path d="M4.249 4.121a2.988 2.988 0 015.936.045l.038.366.361.071a2.385 2.385 0 01-.468 4.723.5.5 0 000 1 3.384 3.384 0 001.01-6.615 3.988 3.988 0 00-7.8-.107 3.385 3.385 0 00.558 6.722.5.5 0 000-1 2.384 2.384 0 01-.109-4.766l.423-.019z"/><path d="M6.679 4.615a.5.5 0 01.638 0l2.498 2.07a.5.5 0 01-.638.77L7.5 6.065V13a.5.5 0 01-1 0V6.062L4.819 7.455a.5.5 0 11-.638-.77z"/></g></svg>