<svg xmlns="http://www.w3.org/2000/svg" xmlns:xlink="http://www.w3.org/1999/xlink" width="1em" height="1em" viewBox="0 0 16 16"><path fill="currentColor" d="M10.667.833a.5.5 0 01.5.5v.834h1.5c1.012 0 1.833.82 1.833 1.833v9.333c0 1.013-.82 1.834-1.833 1.834H3.333A1.833 1.833 0 011.5 13.333V4c0-1.013.82-1.833 1.833-1.833h1.5v-.834a.5.5 0 011 0v.834h4.334v-.834a.5.5 0 01.5-.5M4.833 3.167h-1.5A.833.833 0 002.5 4v2.167h11V4a.833.833 0 00-.833-.833h-1.5V4a.5.5 0 01-1 0v-.833H5.833V4a.5.5 0 11-1 0zm8.667 4h-11v6.166c0 .46.373.834.833.834h9.334c.46 0 .833-.373.833-.834z"/></svg>