<svg xmlns="http://www.w3.org/2000/svg" xmlns:xlink="http://www.w3.org/1999/xlink" width="1em" height="1em" viewBox="0 0 16 16"><g fill="currentColor"><g clip-path="url(#svgID0)"><path d="m14.886 2.923-.978.765A7.27 7.27 0 008.17.888 7.28 7.28 0 00.889 8.165a7.282 7.282 0 0014.125 2.504.14.14 0 00-.085-.179l-.983-.338a.14.14 0 00-.175.084 5.9 5.9 0 01-1.38 2.156 5.93 5.93 0 01-4.216 1.748 5.92 5.92 0 01-4.217-1.749 5.93 5.93 0 01-1.746-4.22 5.94 5.94 0 011.746-4.219 5.93 5.93 0 014.216-1.748 5.92 5.92 0 014.216 1.748q.258.258.482.545l-1.044.815a.139.139 0 00.052.245l3.045.745a.14.14 0 00.172-.133l.014-3.137a.14.14 0 00-.225-.108Z"/></g><defs><clipPath id="svgID0"><path d="M0 0h16v16H0z"/></clipPath></defs></g></svg>