<svg xmlns="http://www.w3.org/2000/svg" xmlns:xlink="http://www.w3.org/1999/xlink" width="1em" height="1em" viewBox="0 0 16 16"><path fill="currentColor" d="m13.427 8.902 1.023.875a.5.5 0 01.145.546l-.014.041a7 7 0 01-1.245 2.155l-.028.033a.5.5 0 01-.549.148l-1.27-.452a5.5 5.5 0 01-1.558.9l-.245 1.329a.5.5 0 01-.403.401l-.042.008a7 7 0 01-2.485 0l-.042-.008a.5.5 0 01-.403-.401l-.247-1.335a5.5 5.5 0 01-1.547-.897l-1.28.455a.5.5 0 01-.548-.148l-.028-.033a7 7 0 01-1.245-2.155l-.014-.04a.5.5 0 01.145-.55l1.036-.885a5.5 5.5 0 010-1.784L1.547 6.22a.5.5 0 01-.145-.55l.014-.04A7 7 0 012.66 3.475l.028-.033a.5.5 0 01.548-.148l1.28.454a5.5 5.5 0 011.547-.896l.247-1.335a.5.5 0 01.403-.401l.042-.008a7 7 0 012.485 0l.042.008a.5.5 0 01.403.401l.245 1.328c.566.213 1.09.516 1.558.9l1.27-.451a.5.5 0 01.549.148l.028.033c.544.64.962 1.366 1.245 2.155l.014.04a.5.5 0 01-.145.55l-1.023.875a5.6 5.6 0 010 1.807ZM12.377 8q0-.364-.06-.72l-.101-.624 1.167-.998a6 6 0 00-.666-1.15l-1.45.514-.49-.403a4.4 4.4 0 00-1.24-.716l-.595-.223-.28-1.516c-.44-.05-.889-.05-1.328 0l-.28 1.519-.591.223c-.446.169-.86.41-1.23.714l-.49.405-1.46-.519q-.4.538-.666 1.15l1.18 1.008-.102.625a4.3 4.3 0 000 1.422l.102.625-1.18 1.008q.267.611.666 1.15l1.46-.519.49.405c.37.304.784.545 1.23.714l.59.226.28 1.52c.44.05.889.05 1.328 0l.28-1.517.595-.223c.45-.169.866-.41 1.239-.716l.49-.403 1.45.514a5.8 5.8 0 00.666-1.15l-1.167-.998.103-.627q.06-.356.06-.72M8 5.094a2.75 2.75 0 100 5.5 2.75 2.75 0 000-5.5m0 4.5c-.467 0-.906-.183-1.237-.513a1.74 1.74 0 01-.513-1.237c0-.467.183-.907.513-1.238s.77-.512 1.237-.512.906.181 1.238.512c.33.331.512.77.512 1.238s-.183.906-.512 1.237c-.332.33-.77.513-1.238.513"/></svg>