<svg xmlns="http://www.w3.org/2000/svg" xmlns:xlink="http://www.w3.org/1999/xlink" width="1em" height="1em" viewBox="0 0 16 16"><g fill="currentColor"><g clip-path="url(#svgID0)"><path d="M8 12.542a.833.833 0 100-1.667.833.833 0 000 1.667M8.5 4a.5.5 0 00-1 0v5a.5.5 0 001 0z"/><path d="M2.932 2.932A7.15 7.15 0 018 .833c1.979 0 3.771.803 5.068 2.1A7.15 7.15 0 0115.167 8a7.15 7.15 0 01-2.1 5.067A7.15 7.15 0 018 15.167a7.15 7.15 0 01-5.068-2.1A7.15 7.15 0 01.833 8c0-1.98.803-3.772 2.1-5.068ZM8 1.833c-1.703 0-3.244.69-4.36 1.806A6.15 6.15 0 001.833 8c0 1.704.69 3.245 1.807 4.361A6.15 6.15 0 008 14.166c1.703 0 3.244-.69 4.36-1.806A6.15 6.15 0 0014.168 8c0-1.703-.69-3.244-1.806-4.36A6.15 6.15 0 008 1.832Z"/></g><defs><clipPath id="svgID0"><path d="M0 0h16v16H0z"/></clipPath></defs></g></svg>