<svg xmlns="http://www.w3.org/2000/svg" xmlns:xlink="http://www.w3.org/1999/xlink" width="1em" height="1em" viewBox="0 0 16 16"><path fill="currentColor" d="M1.5 2.667c0-.645.522-1.167 1.167-1.167H6c.644 0 1.167.522 1.167 1.167V6c0 .644-.523 1.167-1.167 1.167H2.667A1.167 1.167 0 011.5 6zM2.667 2.5a.167.167 0 00-.167.167V6c0 .092.075.167.167.167H6A.167.167 0 006.167 6V2.667A.167.167 0 006 2.5zM1.5 10c0-.645.522-1.167 1.167-1.167H6c.644 0 1.167.522 1.167 1.167v3.333c0 .644-.523 1.167-1.167 1.167H2.667A1.167 1.167 0 011.5 13.333zm1.167-.167A.167.167 0 002.5 10v3.333c0 .092.075.167.167.167H6a.167.167 0 00.167-.167V10A.167.167 0 006 9.833zm6.166-7.166c0-.645.523-1.167 1.167-1.167h3.333c.645 0 1.167.522 1.167 1.167V6c0 .644-.522 1.167-1.167 1.167H10A1.167 1.167 0 018.833 6zM10 2.5a.167.167 0 00-.167.167V6c0 .092.075.167.167.167h3.333A.167.167 0 0013.5 6V2.667a.167.167 0 00-.167-.167zM8.833 10c0-.645.523-1.167 1.167-1.167h3.333c.645 0 1.167.522 1.167 1.167v3.333c0 .644-.522 1.167-1.167 1.167H10a1.167 1.167 0 01-1.167-1.167zM10 9.833a.167.167 0 00-.167.167v3.333c0 .092.075.167.167.167h3.333a.167.167 0 00.167-.167V10a.167.167 0 00-.167-.167z"/></svg>