<svg xmlns="http://www.w3.org/2000/svg" xmlns:xlink="http://www.w3.org/1999/xlink" width="1em" height="1em" viewBox="0 0 16 16"><g fill="currentColor"><path d="M3 1.5A1.5 1.5 0 001.5 3v10A1.5 1.5 0 003 14.5h10a1.5 1.5 0 001.5-1.5V8a.5.5 0 00-1 0v5a.5.5 0 01-.5.5H3a.5.5 0 01-.5-.5V3a.5.5 0 01.5-.5h5a.5.5 0 000-1z"/><path d="M12.728 2.21a1 1 0 00-1.414 0L7.22 6.303a1.5 1.5 0 00-.269.366L5.493 9.46c-.317.608.337 1.262.945.945l2.79-1.458a1.5 1.5 0 00.367-.269l4.094-4.094a1 1 0 000-1.414l-.96-.96Zm-.707.707.96.96-4.093 4.094a.5.5 0 01-.122.09L6.822 9.076l1.015-1.943a.5.5 0 01.09-.122z"/></g></svg>