<svg xmlns="http://www.w3.org/2000/svg" xmlns:xlink="http://www.w3.org/1999/xlink" width="1em" height="1em" viewBox="0 0 16 16"><path fill="currentColor" d="M10.605.953a.5.5 0 01.577.094l3.771 3.771a.5.5 0 01-.424.849l-1.302-.186-1.867 3.527a6 6 0 01.16 1.531c-.027.68-.215 1.463-.81 2.057a.5.5 0 01-.706 0l-2.081-2.08-4.38 2.627a.5.5 0 01-.686-.686l2.628-4.38-2.081-2.08a.5.5 0 010-.708c.323-.322.742-.502 1.146-.602a5 5 0 011.211-.133 8 8 0 011.213.096l3.546-1.877-.186-1.302a.5.5 0 01.271-.518M6.959 5.662h-.003l-.016-.004a7 7 0 00-.328-.05 7 7 0 00-.851-.054c-.33 0-.668.028-.969.103a2 2 0 00-.24.074l1.916 1.915a.5.5 0 01.075.611l-1.8 3 3-1.8a.5.5 0 01.61.075l1.944 1.944c.142-.286.21-.62.223-.977a5 5 0 00-.175-1.429.5.5 0 01.042-.361l2.121-4.007a.5.5 0 01.513-.261l.165.024-1.65-1.65.023.165a.5.5 0 01-.26.512L7.29 5.614a.5.5 0 01-.332.048Z"/></svg>