<svg xmlns="http://www.w3.org/2000/svg" xmlns:xlink="http://www.w3.org/1999/xlink" width="1em" height="1em" viewBox="0 0 14 14"><g fill="currentColor"><path d="M8 5.5a.5.5 0 01.5.5v1.5H10a.5.5 0 010 1H8.5V10a.5.5 0 01-1 0V8.5H6a.5.5 0 010-1h1.5V6a.5.5 0 01.5-.5"/><path d="M3.143 1.5c-.907 0-1.643.736-1.643 1.643v5.714c0 .907.736 1.643 1.643 1.643H3.5v.357c0 .908.736 1.643 1.643 1.643h5.714c.908 0 1.643-.736 1.643-1.643V5.143c0-.907-.736-1.643-1.643-1.643H10.5v-.357c0-.907-.736-1.643-1.643-1.643zm6.357 2H5.143c-.907 0-1.643.736-1.643 1.643V9.5h-.357a.643.643 0 01-.643-.643V3.143c0-.355.288-.643.643-.643h5.714c.355 0 .643.288.643.643zm-5 1.643c0-.355.288-.643.643-.643h5.714c.355 0 .643.288.643.643v5.714a.643.643 0 01-.643.643H5.143a.643.643 0 01-.643-.643z"/></g></svg>