<svg xmlns="http://www.w3.org/2000/svg" xmlns:xlink="http://www.w3.org/1999/xlink" width="1em" height="1em" viewBox="0 0 16 16"><path fill="currentColor" d="M7.646 1.192a.5.5 0 01.708 0l1.9 1.901a.5.5 0 11-.707.707L8.5 2.753V7.49h4.735l-.935-.936a.5.5 0 11.707-.707l1.901 1.901a.5.5 0 010 .707l-1.9 1.9a.5.5 0 11-.708-.706l1.16-1.16H8.5v4.96L9.547 12.4a.5.5 0 11.707.707l-1.9 1.9a.5.5 0 01-.708 0l-1.9-1.9a.5.5 0 11.707-.707L7.5 13.448v-4.96H2.54l1.16 1.16a.5.5 0 11-.707.707l-1.901-1.9a.5.5 0 010-.708l1.9-1.9a.5.5 0 11.708.706l-.935.936H7.5V2.753L6.453 3.8a.5.5 0 01-.707-.707l1.9-1.9Z"/></svg>