<svg xmlns="http://www.w3.org/2000/svg" xmlns:xlink="http://www.w3.org/1999/xlink" width="1em" height="1em" viewBox="0 0 24 24"><path fill="currentColor" d="M17.152 7.038c0 2.872-2.326 5.2-5.196 5.203h.494v4.415c4.267.088 7.647 1.286 7.647 2.751 0 1.523-3.647 2.757-8.147 2.757s-8.147-1.234-8.147-2.757c0-1.465 3.38-2.663 7.647-2.75V12.24h.495a5.202 5.202 0 115.207-5.203ZM11.45 18.221c-1.718.082-3.04.582-3.04 1.186 0 .662 1.585 1.198 3.54 1.198s3.54-.536 3.54-1.198c0-.604-1.321-1.104-3.04-1.186v.418c1.292.065 2.272.384 2.272.768 0 .432-1.234.781-2.757.781-1.522 0-2.757-.35-2.757-.78 0-.382.966-.7 2.242-.768zM8.23 5.777a.98.98 0 101.959 0 .98.98 0 00-1.96 0Z"/></svg>