<svg xmlns="http://www.w3.org/2000/svg" xmlns:xlink="http://www.w3.org/1999/xlink" width="1em" height="1em" viewBox="0 0 24 24"><g fill="currentColor"><path d="M9.723 4.285a2.2 2.2 0 00.675 1.583c.214.208.468.373.747.485a2.36 2.36 0 002.512-.485 2.2 2.2 0 00.675-1.583 2.2 2.2 0 00-.675-1.583 2.34 2.34 0 00-1.63-.655c-.611 0-1.197.236-1.63.655-.431.42-.674.99-.674 1.583m-.207 12.162c-3.146.373-5.414 1.43-5.414 2.674 0 1.557 3.548 2.82 7.925 2.82s7.926-1.263 7.926-2.82c0-1.24-2.252-2.293-5.381-2.67l-.487.952c1.253.126 2.354.362 3.211.667.655.233 1.114.487 1.39.72.135.113.205.203.239.262a.3.3 0 01.025.056l.003.013s0 .005-.003.014a.3.3 0 01-.025.056 1 1 0 01-.239.262c-.276.232-.735.486-1.39.72-1.3.462-3.163.767-5.269.767-2.105 0-3.968-.305-5.269-.768-.655-.233-1.114-.487-1.39-.719a1 1 0 01-.239-.262.3.3 0 01-.025-.056l-.002-.014.002-.013a.3.3 0 01.025-.056c.034-.059.104-.15.24-.263.275-.232.734-.486 1.39-.719.862-.307 1.971-.544 3.234-.67z"/><path d="M12.075 14.709q-1.148 0-2.091-.127l1.789 4.801q.025.066.084.107a.234.234 0 00.349-.105l1.816-4.778q-.886.102-1.947.102m3.24-7.269a1.6 1.6 0 00-.71-.17H9.45c-.247 0-.49.058-.708.168-.22.11-.407.271-.549.467a1.45 1.45 0 00-.187 1.364l1.605 4.31q1.178.285 2.377.284a11.3 11.3 0 002.417-.264l1.64-4.32a1.45 1.45 0 00-.18-1.37 1.5 1.5 0 00-.55-.47Z"/></g></svg>