<svg xmlns="http://www.w3.org/2000/svg" xmlns:xlink="http://www.w3.org/1999/xlink" width="1em" height="1em" viewBox="0 0 25 24"><path fill="currentColor" d="M19.287 4.707a1.725 1.725 0 112.624-.02l-1.266 1.934a.042.042 0 01-.07 0zm1.304-.543a.587.587 0 100-1.175.587.587 0 000 1.175M14.384 11a6.1 6.1 0 01-1.499 4.017L8.31 21.821a.15.15 0 01-.25-.002l-4.503-6.872A6.133 6.133 0 1114.384 11m-4.045 0a2.088 2.088 0 10-4.176 0 2.088 2.088 0 004.176 0m1.05 8.519 5.08 1.949 5.848-3.69-4.664-3.619 3.341-3.48-2.923-1.949 1.183-1.67-2.784 1.67 1.949 1.95-4.037 3.897 2.088 2.297z"/></svg>