<svg xmlns="http://www.w3.org/2000/svg" xmlns:xlink="http://www.w3.org/1999/xlink" width="1em" height="1em" viewBox="0 0 24 24"><g fill="currentColor"><path d="M14.16 3.46a5.06 5.06 0 016.277 5.603.5.5 0 00.99.139 6.06 6.06 0 00-7.518-6.71.5.5 0 00.25.969Zm6.017 12.25A8.703 8.703 0 117.521 3.76l6.002 5.667.56-.56a1.216 1.216 0 11.741.74l-.539.539 5.892 5.563Z"/><path d="M6.891 17.087a11.7 11.7 0 005.901 3.01l1 1.746H2.924l2.92-5.882q.48.59 1.048 1.126ZM13.715 5.26a.5.5 0 01.38-.596 3.976 3.976 0 014.71 4.88.5.5 0 11-.968-.251A2.976 2.976 0 0014.31 5.64a.5.5 0 01-.596-.38Z"/></g></svg>