<svg xmlns="http://www.w3.org/2000/svg" xmlns:xlink="http://www.w3.org/1999/xlink" width="1em" height="1em" viewBox="0 0 25 24"><path fill="currentColor" d="M2.44 2.16h8.873v8.873H2.44zm8.261 17.5v2.256c-1.108.2-3.64.15-5.337-2.256-.905-1.51-1.3-2.826-1.268-3.278H2.44l2.725-3.26 2.725 3.26H6.46c.163 1.217.997 3.426 4.241 3.278m3.162-14.72V2.684c1.109-.2 3.64-.15 5.338 2.256.905 1.51 1.3 2.826 1.267 3.278h1.657l-2.725 3.26-2.725-3.26h1.43C17.942 7 17.108 4.792 13.863 4.94m4.214 16.394a4.106 4.106 0 100-8.213 4.106 4.106 0 000 8.213"/></svg>