<svg xmlns="http://www.w3.org/2000/svg" xmlns:xlink="http://www.w3.org/1999/xlink" width="1em" height="1em" viewBox="0 0 24 24"><g fill="currentColor"><path d="m4.907 7.455-1.683-.89L5.98 2.023l16.071 8.283-1.836 2.704-1.407-.645-1.343 2.471-2.042-1.151-.332-.162-.623.974L3.905 9.239zm-2.785 3.851h1v2.114H6.14a2.3 2.3 0 00-.074.578c0 1.174.89 2.126 1.987 2.126.432 0 .832-.148 1.158-.398v.01a2 2 0 01-2 2H3.122v1.931h-1z"/><path d="M6.63 13.979a1.29 1.29 0 102.58 0 1.29 1.29 0 00-2.58 0"/></g></svg>