<svg xmlns="http://www.w3.org/2000/svg" xmlns:xlink="http://www.w3.org/1999/xlink" width="1em" height="1em" viewBox="0 0 24 24"><path fill="currentColor" d="M12.656 5.762a2.13 2.13 0 103.013-3.011 2.13 2.13 0 00-3.013 3.011m5.446 5.116L15.22 9.835l-1.5-2.202c-.037-.053-.405-.551-.621-.704a1.9 1.9 0 00-1.092-.343s-.269.007-.361.023c0 0-.188.019-.279.049L7.896 7.835a.92.92 0 00-.581.593l-.927 2.907a.924.924 0 001.759.563l.785-2.464.997-.338s.002 0 .002.002c-.067.33-.14.682-.197.95a6 6 0 00-.122.925c-.03.564-.075 1.405-.084 1.616-.002.032.03.463.023.475l-1.356 3.208-2.633 2.125a.936.936 0 00-.157 1.305.925.925 0 001.305.144l2.827-2.283a.9.9 0 00.272-.36l1.24-2.934c.046.003.21.005.21.005q.17 0 .332-.028h.002l1.113 2.719-.146 3.952c-.019.51.38.938.89.957h.035a.925.925 0 00.922-.89l.153-4.151a.95.95 0 00-.067-.385l-1.451-3.542c.02-.104.035-2.074.035-2.074q0-.226.07-.443l.069-.215h.002l.65.95c.108.16.266.283.449.348l3.163 1.142a.926.926 0 001.184-.554.935.935 0 00-.562-1.182"/></svg>