<svg xmlns="http://www.w3.org/2000/svg" xmlns:xlink="http://www.w3.org/1999/xlink" width="1em" height="1em" viewBox="0 0 25 24"><path fill="currentColor" d="M7.441 2.027H2.288v6.476h1V3.027H7.44zm9.703 1h4.09v5.476h1V2.027h-5.09zM3.288 15.31v5.663H7.44v1H2.288v-6.662h1Zm17.946 0v5.663h-4.09v1h5.09v-6.662h-1ZM19.8 12c0 2.378-3.375 4.306-7.539 4.306S4.721 14.378 4.721 12s3.376-4.307 7.54-4.307 7.54 1.929 7.54 4.307Zm-5.135 0c0-1.314-1.076-2.38-2.404-2.38S9.857 10.686 9.857 12s1.076 2.38 2.404 2.38 2.404-1.066 2.404-2.38"/></svg>