<svg xmlns="http://www.w3.org/2000/svg" xmlns:xlink="http://www.w3.org/1999/xlink" width="1em" height="1em" viewBox="0 0 24 24"><g fill="currentColor"><path d="m10.55 11.757-1.76-2.88 4.613 2.88z"/><path d="M12 22.002c5.524 0 10.002-4.478 10.002-10.002S17.524 1.998 12 1.998a9.97 9.97 0 00-7.004 2.86l.05.017C3.55 6.277 2.275 8.728 2.108 11.456c-.173 2.815.835 5.916 3.951 8.464l.009.134A9.96 9.96 0 0012 22.002m-5.888-3.361c-2.402-2.23-3.149-4.8-3.006-7.124.16-2.613 1.447-4.922 2.828-6.094l.203-.173c8.496 3.062 11.4 7.48 11.582 8.714.156 1.051-.714 2.341-1.443 2.873-.987-1.142-3.96-3.127-7.107-2.075-2.062.688-2.847 2.367-3.057 3.879"/></g></svg>