<svg xmlns="http://www.w3.org/2000/svg" xmlns:xlink="http://www.w3.org/1999/xlink" width="1em" height="1em" viewBox="0 0 24 24"><g fill="currentColor"><path d="M11.205 16.998a3.595 3.595 0 100-7.19 3.595 3.595 0 000 7.19"/><path d="m11.245 2.023 2.226 2.263h-1.757l-.038 2.524a6.606 6.606 0 016.081 6.087l1.93.004V11.17l2.263 2.226-2.263 2.226v-1.72l-1.93-.005a6.606 6.606 0 01-6.012 6.079v1.899h-1v-1.888a6.606 6.606 0 01-6.16-6.091H1.983v-1h2.602a6.606 6.606 0 016.09-6.086l.039-2.524H9.019zm5.426 10.872h.082a5.605 5.605 0 100 1h-.085z"/></g></svg>