<svg xmlns="http://www.w3.org/2000/svg" xmlns:xlink="http://www.w3.org/1999/xlink" width="1em" height="1em" viewBox="0 0 24 24"><g fill="currentColor"><path d="M12.495 21.93a10.03 10.03 0 009.517-9.404l-3.424-.003a7 7 0 01-.233 1.328l-.963-.27a6 6 0 00.193-1.059l-5.088-.004-.001 5.254a5.8 5.8 0 001.752-.497l.421.906a6.8 6.8 0 01-2.174.597zm5.25-5.954a1.226 1.226 0 11-2.453 0 1.226 1.226 0 012.452 0Zm-5.585 5.965h-.325a10 10 0 00.325 0m-.665-.011v-3.125a6.804 6.804 0 01-6.475-6.293l-3.033-.003a10.03 10.03 0 009.508 9.42Z"/><path d="m11.496 17.804.001-5.287-5.474-.005a5.804 5.804 0 005.473 5.292m1.633-6.286 4.458.004a5.8 5.8 0 00-1.277-3.17zm-.631-.782 3.117-3.103A5.8 5.8 0 0012.5 6.248l-.001 4.488Z"/><path d="M16.326 6.926a6.78 6.78 0 00-3.827-1.685l.001-3.334h-1v3.306a6.804 6.804 0 00-6.48 6.299l-3.042-.003C2.19 6.157 6.596 1.882 12 1.882c2.604 0 4.977.993 6.76 2.62zm.696.718 2.442-2.431a10 10 0 012.55 7.259l.002-.946-3.425-.003a6.77 6.77 0 00-1.569-3.88Z"/><path d="m11.499 6.214-.002 5.303-5.474-.005a5.804 5.804 0 015.476-5.298M1.97 11.912q0-.156.005-.31v.603a10 10 0 01-.005-.293"/></g></svg>