<svg xmlns="http://www.w3.org/2000/svg" xmlns:xlink="http://www.w3.org/1999/xlink" width="1em" height="1em" viewBox="0 0 24 24"><path fill="currentColor" d="m3.15 18.977.007-3.891h2.84v-1H3.158l.007-3.875h1.823v-1h-1.82l.006-3.89h2.823v-1H3.176l.002-1.335-1-.002-.034 18.797 1 .002.004-1.806h1.84v-1zm10.986-4.626c2.093 0 3.79-1.63 3.79-3.64 0-2.009-3.79-7.226-3.79-7.226s-3.79 5.217-3.79 7.227 1.698 3.64 3.79 3.64Zm-5.198 2.355c-.574.02-1.12-.45-1.477-.851-.133-.15-.42-.056-.42.144v5.648c0 .11.089.2.2.2h14.385a.2.2 0 00.2-.2V15.61c0-.166-.136-.303-.3-.28-.701.092-1.117.505-1.47.854-.283.282-.526.522-.844.522-.517 0-.824-.31-1.147-.639-.362-.368-.746-.757-1.473-.757-.683 0-.977.334-1.278.676-.305.346-.616.7-1.345.72-.54.016-.835-.31-1.143-.652-.33-.363-.674-.744-1.347-.744-.491 0-.886.347-1.283.696-.388.34-.777.683-1.258.7"/></svg>