<svg xmlns="http://www.w3.org/2000/svg" xmlns:xlink="http://www.w3.org/1999/xlink" width="1em" height="1em" viewBox="0 0 24 24"><g fill="currentColor"><path d="M19.028 14.394V7.378a2.654 2.654 0 00-2.655-2.655h-.122a2.53 2.53 0 00-2.532 2.533h-2.5a5.03 5.03 0 015.032-5.033h.122a5.154 5.154 0 015.155 5.155v7.016z"/><path d="M4.977 16.122V9.474h-2.5v6.648a5.623 5.623 0 1011.247 0v-2.837h.987v-1.86h-.988V9.474h-2.5v1.951h-1.13v1.86h1.13v2.837a3.123 3.123 0 01-6.246 0"/><path d="M10.225 10.23 9.54 9.5l-2.363 2.222.685.728zm-.022-4.309-2.26-2.325-.717.697 2.26 2.325zM9.541 8.6l.026-1-3.242-.082-.026 1z"/></g></svg>