<svg xmlns="http://www.w3.org/2000/svg" xmlns:xlink="http://www.w3.org/1999/xlink" width="1em" height="1em" viewBox="0 0 24 24"><g fill="currentColor"><path d="M21.742 3.147 19.619 1.22l-1.075 1.184 2.123 1.928z"/><path d="m19.035 2.85 1.14 1.035-3.24 3.567 1.8 1.633-3.177 3.497a3.38 3.38 0 01-5.003-4.544L13.73 4.54l2.065 1.875 3.239-3.567Z"/><path d="M2.163 4.226c.91-.044 3.493.634 4.363 3.078.202.569.367 1.151.534 1.74.462 1.627.938 3.303 2.257 4.896.975 1.177 2.16 1.58 3.434 2.013 1.073.366 2.21.753 3.341 1.643 1.603 1.262 2.232 2.212 2.805 3.079.31.47.604.914 1.029 1.37H2.162V4.225Z"/></g></svg>