<svg xmlns="http://www.w3.org/2000/svg" xmlns:xlink="http://www.w3.org/1999/xlink" width="1em" height="1em" viewBox="0 0 24 24"><g fill="currentColor"><path d="M9.034 5.064a1.207 1.207 0 11-2.414 0 1.207 1.207 0 012.414 0M5.037 12a1.582 1.582 0 100-3.165 1.582 1.582 0 000 3.165m-3.063 2.367c1.342-.406 4.669-.819 7.245.773.78.483 1.551 1.096 2.363 1.742 2.532 2.014 5.46 4.343 10.337 4.008v1.147H1.974zm11.028 1.635a1.002 1.002 0 100-2.004 1.002 1.002 0 000 2.004m2.78-6.717a3.013 3.013 0 11-6.027 0 3.013 3.013 0 016.027 0"/><path d="M17.955 19.348a2.174 2.174 0 100-4.348 2.174 2.174 0 000 4.348"/></g></svg>