<svg xmlns="http://www.w3.org/2000/svg" xmlns:xlink="http://www.w3.org/1999/xlink" width="1em" height="1em" viewBox="0 0 24 24"><g fill="currentColor"><path d="m2.074 9.11 9.756-6.022a.5.5 0 01.528.002l9.58 6.022c.424.267.235.923-.267.923H2.336c-.504 0-.691-.661-.262-.926Zm10.366.403a1.351 1.351 0 101.91-1.91 1.351 1.351 0 00-1.91 1.91"/><path d="M20.396 10.035v10.874H3.601V10.035zm-4.505 2.72-1.826-.66-.95-1.396c-.024-.034-.258-.35-.394-.447a1.2 1.2 0 00-.692-.217s-.17.004-.23.015c0 0-.118.011-.176.03l-2.2.747a.58.58 0 00-.37.376l-.587 1.842a.586.586 0 001.115.357l.498-1.561.632-.215.001.002-.084.405-.04.197q-.062.291-.078.586c-.02.357-.047.89-.053 1.024-.001.009.002.064.006.125.005.081.01.172.008.176l-.86 2.033-1.668 1.348a.594.594 0 00-.1.827.587.587 0 00.827.091l1.793-1.447a.6.6 0 00.171-.228l.786-1.86c.03.002.134.003.134.003q.107 0 .21-.018h.002l.705 1.724-.093 2.505a.586.586 0 00.565.607h.021a.586.586 0 00.585-.565l.097-2.63a.6.6 0 00-.042-.245l-.92-2.245c.013-.066.022-1.315.022-1.315a.9.9 0 01.044-.28l.044-.137h.002l.41.603a.58.58 0 00.286.22l2.005.724a.587.587 0 00.75-.351.593.593 0 00-.356-.75"/></g></svg>