<svg xmlns="http://www.w3.org/2000/svg" xmlns:xlink="http://www.w3.org/1999/xlink" width="1em" height="1em" viewBox="0 0 18 18"><g fill="currentColor"><path d="M11.998 6.063a.5.5 0 01-.04.706L9.812 8.684a.5.5 0 01-.686-.02l-.973-.972-1.682 1.683a.5.5 0 11-.707-.707L7.8 6.632a.5.5 0 01.707 0l.992.991 1.793-1.6a.5.5 0 01.706.04"/><path d="M2.125 2.947a.5.5 0 01.5-.5h12.75a.5.5 0 01.5.5v9.87a.5.5 0 01-.5.5H2.625a.5.5 0 01-.5-.5zm1 .5v8.87h11.75v-8.87zm1.5 12.128a.5.5 0 100 1h8.75a.5.5 0 000-1z"/></g></svg>