<svg xmlns="http://www.w3.org/2000/svg" xmlns:xlink="http://www.w3.org/1999/xlink" width="1em" height="1em" viewBox="0 0 18 18"><g fill="currentColor"><path d="M5.133 1.702a.5.5 0 100 1h8.301a.5.5 0 100-1zm5.383 5.04a.5.5 0 01.468.373l.894 3.392h2.21a.5.5 0 110 1h-2.595a.5.5 0 01-.484-.373l-.56-2.13-1.686 5.135a.5.5 0 01-.923.066l-1.338-2.698H4.981a.5.5 0 010-1h1.831a.5.5 0 01.448.278l.934 1.882 1.832-5.581a.5.5 0 01.49-.344"/><path d="M2.08 4.835a.5.5 0 01.5-.5h13.408a.5.5 0 01.5.5v10.963a.5.5 0 01-.5.5H2.579a.5.5 0 01-.5-.5zm1 .5v9.963h12.408V5.335z"/></g></svg>