<svg xmlns="http://www.w3.org/2000/svg" xmlns:xlink="http://www.w3.org/1999/xlink" width="1em" height="1em" viewBox="0 0 18 18"><g fill="currentColor"><path d="M11.231 9.503h-4.5v-1h4.5z"/><path d="M4.875 1.375a.5.5 0 00-.376.17l-2.625 3 .06.053c-.117.19-.184.413-.184.652V15c0 .69.56 1.25 1.25 1.25h12c.69 0 1.25-.56 1.25-1.25V5.25c0-.239-.067-.462-.183-.652l.06-.052-2.626-3a.5.5 0 00-.376-.171zM14.32 4H3.68l1.422-1.625h7.796zM3 5h12a.25.25 0 01.25.25V15a.25.25 0 01-.25.25H3a.25.25 0 01-.25-.25V5.25A.25.25 0 013 5"/></g></svg>