<svg xmlns="http://www.w3.org/2000/svg" xmlns:xlink="http://www.w3.org/1999/xlink" width="1em" height="1em" viewBox="0 0 18 18"><path fill="currentColor" d="M2.633 1.678a.5.5 0 00-.5.5v3.477a.5.5 0 00.5.5h1.964v8.315a.5.5 0 00.5.5h4.485v1.238a.5.5 0 00.5.5h5.285a.5.5 0 00.5-.5v-3.477a.5.5 0 00-.5-.5h-5.285a.5.5 0 00-.5.5v1.239H5.597V8.755h3.985v1.237a.5.5 0 00.5.5h5.285a.5.5 0 00.5-.5V6.515a.5.5 0 00-.5-.5h-5.285a.5.5 0 00-.5.5v1.24H5.597v-1.6h2.321a.5.5 0 00.5-.5V2.178a.5.5 0 00-.5-.5zm.5 3.477V2.678h4.285v2.477zm7.449 4.337V7.015h4.285v2.477zm4.285 3.74v2.476h-4.285v-2.477h4.285Z"/></svg>