<svg xmlns="http://www.w3.org/2000/svg" xmlns:xlink="http://www.w3.org/1999/xlink" width="1em" height="1em" viewBox="0 0 18 18"><g fill="currentColor"><path d="M4.875 3.75h-.75a.375.375 0 00-.375.375v.75c0 .207.168.375.375.375h.75a.375.375 0 00.375-.375v-.75a.375.375 0 00-.375-.375m3 0h-.75a.375.375 0 00-.375.375v.75c0 .207.168.375.375.375h.75a.375.375 0 00.375-.375v-.75a.375.375 0 00-.375-.375"/><path d="M2 .625a.5.5 0 00-.5.5v6a.5.5 0 00.5.5h14a.5.5 0 00.5-.5v-6a.5.5 0 00-.5-.5zm.5 6v-5h13v5zm1.625 6.125h.75c.207 0 .375.168.375.375v.75a.375.375 0 01-.375.375h-.75a.375.375 0 01-.375-.375v-.75c0-.207.168-.375.375-.375m3 0h.75c.207 0 .375.168.375.375v.75a.375.375 0 01-.375.375h-.75a.375.375 0 01-.375-.375v-.75c0-.207.168-.375.375-.375"/><path d="M2 9.625a.5.5 0 00-.5.5v6a.5.5 0 00.5.5h14a.5.5 0 00.5-.5v-6a.5.5 0 00-.5-.5zm.5 6v-5h13v5z"/></g></svg>