<svg xmlns="http://www.w3.org/2000/svg" xmlns:xlink="http://www.w3.org/1999/xlink" width="1em" height="1em" viewBox="0 0 18 18"><g fill="currentColor"><path d="M4.18 8.686a.5.5 0 01.498-.502l5.818-.027a.5.5 0 11.005 1l-5.818.027a.5.5 0 01-.502-.498Zm.498 3.087a.5.5 0 10.005 1l5.818-.027a.5.5 0 10-.005-1z"/><path d="M5.62 1.11a.5.5 0 00-.5.5v2.43H2.141a.5.5 0 00-.5.5v11.85a.5.5 0 00.5.5h10.895a.5.5 0 00.5-.5v-3.172h2.321a.5.5 0 00.5-.5V1.61a.5.5 0 00-.5-.5H5.619Zm7.917 11.108V4.539a.5.5 0 00-.5-.5H6.119V2.11h9.239v10.109zM2.642 15.89V5.04h9.895v10.85z"/></g></svg>