<svg xmlns="http://www.w3.org/2000/svg" xmlns:xlink="http://www.w3.org/1999/xlink" width="1em" height="1em" viewBox="0 0 18 18"><path fill="currentColor" d="M11.563 3.764a2.75 2.75 0 013.89 3.89l-6.63 6.628a3.875 3.875 0 11-5.48-5.48l.354.353-.354-.353 5.569-5.569a.5.5 0 11.707.708L4.05 9.508l-.343-.343.343.343a2.875 2.875 0 104.066 4.066l6.63-6.63A1.75 1.75 0 0012.27 4.47L5.641 11.1l-.332-.333.332.333a.625.625 0 10.884.884l5.569-5.569a.5.5 0 11.707.707l-5.569 5.569a1.625 1.625 0 11-2.298-2.298l6.63-6.63Z"/></svg>