<svg xmlns="http://www.w3.org/2000/svg" xmlns:xlink="http://www.w3.org/1999/xlink" width="1em" height="1em" viewBox="0 0 18 18"><path fill="currentColor" d="M9.646 4.155a.5.5 0 000 .707l3.742 3.742a.5.5 0 00.707 0l3.741-3.742a.5.5 0 000-.707L14.095.414a.5.5 0 00-.707 0zm4.095 3.388-3.034-3.034 3.034-3.034 3.034 3.034zM2 1.75a.5.5 0 00-.5.5v6a.5.5 0 00.5.5h6a.5.5 0 00.5-.5v-6a.5.5 0 00-.5-.5zm.5 6v-5h5v5zm-1 2.5a.5.5 0 01.5-.5h6a.5.5 0 01.5.5v6a.5.5 0 01-.5.5H2a.5.5 0 01-.5-.5zm1 .5v5h5v-5zm13.5-1h-6a.5.5 0 00-.5.5v6a.5.5 0 00.5.5h6a.5.5 0 00.5-.5v-6a.5.5 0 00-.5-.5m-5.5 6v-5h5v5z"/></svg>