<svg width="16" height="16" viewBox="0 0 16 16" xmlns="http://www.w3.org/2000/svg">
<path d="M8 9.91211C9.10457 9.91211 10 9.01668 10 7.91211C10 6.80754 9.10457 5.91211 8 5.91211C6.89543 5.91211 6 6.80754 6 7.91211C6 9.01668 6.89543 9.91211 8 9.91211Z" fill="currentColor"/>
<path d="M8.5 1.93265V0.912109H7.5V1.93265C4.5851 2.17312 2.26101 4.49721 2.02054 7.41211H1V8.41211H2.02054C2.26101 11.327 4.5851 13.6511 7.5 13.8916V14.9121H8.5V13.8916C11.4149 13.6511 13.739 11.327 13.9795 8.41211H15V7.41211H13.9795C13.739 4.49721 11.4149 2.17312 8.5 1.93265ZM12 7.41211V8.41211H12.9753C12.7408 10.7743 10.8622 12.6529 8.5 12.8874V11.9121H7.5V12.8874C5.13779 12.6529 3.25922 10.7743 3.02469 8.41211H4V7.41211H3.02469C3.25922 5.0499 5.13779 3.17133 7.5 2.9368V3.91211H8.5V2.9368C10.8622 3.17133 12.7408 5.0499 12.9753 7.41211H12Z" fill="currentColor"/>
</svg>
