<svg width="16" height="16" viewBox="0 0 16 16" fill="none" xmlns="http://www.w3.org/2000/svg">
<path d="M6.44064 8.0127C6.44064 8.43124 6.60691 8.83264 6.90287 9.1286C7.19882 9.42455 7.60022 9.59082 8.01877 9.59082C8.43731 9.59082 8.83872 9.42455 9.13467 9.1286C9.43063 8.83264 9.59689 8.43124 9.59689 8.0127C9.59689 7.59415 9.43063 7.19275 9.13467 6.89679C8.83872 6.60084 8.43731 6.43457 8.01877 6.43457C7.60022 6.43457 7.19882 6.60084 6.90287 6.89679C6.60691 7.19275 6.44064 7.59415 6.44064 8.0127Z" fill="black"/>
<path d="M8.01877 13.6768C7.25471 13.6768 6.51252 13.5268 5.81408 13.2314C5.13908 12.9455 4.53439 12.5377 4.01408 12.0174C3.49377 11.4971 3.08596 10.8908 2.80002 10.2174C2.50471 9.51895 2.35471 8.77676 2.35471 8.0127C2.35471 7.24863 2.50471 6.50645 2.80002 5.80801C3.08596 5.13301 3.49377 4.52832 4.01408 4.00801C4.53439 3.4877 5.14064 3.07988 5.81408 2.79395C6.51252 2.49863 7.25471 2.34863 8.01877 2.34863C8.78283 2.34863 9.52502 2.49863 10.2235 2.79395C10.8985 3.07988 11.5031 3.4877 12.0235 4.00801C12.5438 4.52832 12.9516 5.13457 13.2375 5.80801C13.5328 6.50645 13.6828 7.24863 13.6828 8.0127C13.6828 8.77676 13.5328 9.51895 13.2375 10.2174C12.9516 10.8924 12.5438 11.4971 12.0235 12.0174C11.5031 12.5377 10.8969 12.9455 10.2235 13.2314C9.52502 13.5268 8.78283 13.6768 8.01877 13.6768ZM8.01877 3.12988C5.32658 3.12988 3.13596 5.32051 3.13596 8.0127C3.13596 10.7049 5.32658 12.8955 8.01877 12.8955C10.711 12.8955 12.9016 10.7049 12.9016 8.0127C12.9016 5.32051 10.711 3.12988 8.01877 3.12988Z" fill="black"/>
<path d="M4.22658 8.40332H1.36252C1.14689 8.40332 0.971893 8.22832 0.971893 8.0127C0.971893 7.79707 1.14689 7.62207 1.36252 7.62207H4.22658C4.44221 7.62207 4.61721 7.79707 4.61721 8.0127C4.61721 8.22832 4.44221 8.40332 4.22658 8.40332ZM14.675 8.40332H11.811C11.5953 8.40332 11.4203 8.22832 11.4203 8.0127C11.4203 7.79707 11.5953 7.62207 11.811 7.62207H14.675C14.8906 7.62207 15.0656 7.79707 15.0656 8.0127C15.0656 8.22832 14.8906 8.40332 14.675 8.40332Z" fill="black"/>
<path d="M8.01877 4.61113C7.80314 4.61113 7.62814 4.43613 7.62814 4.22051V1.35645C7.62814 1.14082 7.80314 0.96582 8.01877 0.96582C8.23439 0.96582 8.40939 1.14082 8.40939 1.35645V4.22051C8.40939 4.43613 8.23439 4.61113 8.01877 4.61113ZM8.01877 15.0596C7.80314 15.0596 7.62814 14.8846 7.62814 14.6689V11.8049C7.62814 11.5893 7.80314 11.4143 8.01877 11.4143C8.23439 11.4143 8.40939 11.5893 8.40939 11.8049V14.6689C8.40939 14.8846 8.23439 15.0596 8.01877 15.0596Z" fill="black"/>
</svg>
