<svg width="16" height="16" viewBox="0 0 16 16" fill="none" xmlns="http://www.w3.org/2000/svg">
<path d="M5 4.24805C5 2.59119 6.34315 1.24805 8 1.24805C9.65685 1.24805 11 2.59119 11 4.24805V5.74805C11 6.02419 10.7761 6.24805 10.5 6.24805C10.2239 6.24805 10 6.02419 10 5.74805V4.24805C10 3.14348 9.10457 2.24805 8 2.24805C6.89543 2.24805 6 3.14348 6 4.24805V5.74805C6 6.02419 5.77614 6.24805 5.5 6.24805C5.22386 6.24805 5 6.02419 5 5.74805V4.24805Z" fill="black"/>
<path d="M11 11.7521C11 13.409 9.65685 14.7521 8 14.7521C6.34315 14.7521 5 13.409 5 11.7521L5 10.2521C5 9.97596 5.22386 9.7521 5.5 9.7521C5.77614 9.7521 6 9.97596 6 10.2521L6 11.7521C6 12.8567 6.89543 13.7521 8 13.7521C9.10457 13.7521 10 12.8567 10 11.7521V10.2521C10 9.97596 10.2239 9.7521 10.5 9.7521C10.7761 9.7521 11 9.97596 11 10.2521V11.7521Z" fill="black"/>
</svg>
