<svg width="16" height="16" viewBox="0 0 16 16" xmlns="http://www.w3.org/2000/svg">
<path d="M6.98087 10.6358L11.7211 5.89558L11.014 5.18848L6.98087 9.22163L4.98596 7.22672L4.27885 7.93383L6.98087 10.6358Z" fill="currentColor"/>
<path d="M8 1.41211C4.41015 1.41211 1.5 4.32226 1.5 7.91211C1.5 11.502 4.41015 14.4121 8 14.4121C11.5899 14.4121 14.5 11.502 14.5 7.91211C14.5 4.32226 11.5899 1.41211 8 1.41211ZM2.5 7.91211C2.5 4.87454 4.96243 2.41211 8 2.41211C11.0376 2.41211 13.5 4.87454 13.5 7.91211C13.5 10.9497 11.0376 13.4121 8 13.4121C4.96243 13.4121 2.5 10.9497 2.5 7.91211Z" fill="currentColor"/>
</svg>
