<svg width="16" height="16" viewBox="0 0 16 16" xmlns="http://www.w3.org/2000/svg">
<path d="M7.99993 7.20481L10.4749 4.72986L11.182 5.43697L8.70703 7.91191L11.182 10.3868L10.4748 11.0939L7.99993 8.61902L5.52512 11.0938L4.81802 10.3867L7.29282 7.91191L4.81799 5.43709L5.5251 4.72998L7.99993 7.20481Z" fill="currentColor"/>
<path d="M1.49998 7.91211C1.49998 4.32226 4.41013 1.41211 7.99998 1.41211C11.5898 1.41211 14.5 4.32226 14.5 7.91211C14.5 11.502 11.5898 14.4121 7.99998 14.4121C4.41013 14.4121 1.49998 11.502 1.49998 7.91211ZM7.99998 2.41211C4.96242 2.41211 2.49998 4.87454 2.49998 7.91211C2.49998 10.9497 4.96242 13.4121 7.99998 13.4121C11.0376 13.4121 13.5 10.9497 13.5 7.91211C13.5 4.87454 11.0376 2.41211 7.99998 2.41211Z" fill="currentColor"/>
</svg>
