<svg width="16" height="16" viewBox="0 0 16 16" xmlns="http://www.w3.org/2000/svg">
<path d="M8 14.5C11.5899 14.5 14.5 11.5899 14.5 8C14.5 4.41015 11.5899 1.5 8 1.5C4.41015 1.5 1.5 4.41015 1.5 8C1.5 11.5899 4.41015 14.5 8 14.5ZM11.7475 4.97296L11.3939 5.32652L8.68007 8.04037L11.3132 10.6735L11.6667 11.027L10.9596 11.7341L10.6061 11.3806L7.97296 8.74747L5.39392 11.3265L5.04037 11.6801L4.33326 10.973L4.68681 10.6194L7.26586 8.04037L4.60608 5.38059L4.25253 5.02704L4.95963 4.31993L5.31319 4.67348L7.97296 7.33326L10.6868 4.61941L11.0404 4.26586L11.7475 4.97296Z" fill="currentColor"/>
</svg>
