<svg width="16" height="16" viewBox="0 0 16 16" fill="none" xmlns="http://www.w3.org/2000/svg">
<path d="M3.35355 2.64645C3.15829 2.45118 2.84171 2.45118 2.64645 2.64645C2.45118 2.84171 2.45118 3.15829 2.64645 3.35355L3.35355 2.64645ZM13.6464 14.3536C13.8417 14.5488 14.1583 14.5488 14.3536 14.3536C14.5488 14.1583 14.5488 13.8417 14.3536 13.6464L13.6464 14.3536ZM2.64645 3.35355L13.6464 14.3536L14.3536 13.6464L3.35355 2.64645L2.64645 3.35355Z" fill="black"/>
<path d="M14.3536 3.35355C14.5488 3.15829 14.5488 2.84171 14.3536 2.64645C14.1583 2.45118 13.8417 2.45118 13.6464 2.64645L14.3536 3.35355ZM2.64645 13.6464C2.45118 13.8417 2.45118 14.1583 2.64645 14.3536C2.84171 14.5488 3.15829 14.5488 3.35355 14.3536L2.64645 13.6464ZM13.6464 2.64645L2.64645 13.6464L3.35355 14.3536L14.3536 3.35355L13.6464 2.64645Z" fill="black"/>
</svg>
