<svg width="16" height="16" viewBox="0 0 16 16" xmlns="http://www.w3.org/2000/svg">
<path d="M7.99998 14.5C11.5898 14.5 14.5 11.5899 14.5 8C14.5 4.41015 11.5898 1.5 7.99998 1.5C4.41013 1.5 1.49998 4.41015 1.49998 8C1.49998 11.5899 4.41013 14.5 7.99998 14.5ZM4.81804 10.4749L5.17159 10.1213L7.2929 8.00001L5.17159 5.8787L4.81804 5.52515L5.52515 4.81804L5.8787 5.17159L8.00001 7.29291L10.1213 5.17158L10.4749 4.81802L11.182 5.52513L10.8284 5.87868L8.70712 8.00001L10.8284 10.1213L11.182 10.4749L10.4749 11.182L10.1213 10.8284L8.00001 8.70712L5.8787 10.8284L5.52515 11.182L4.81804 10.4749Z" fill="currentColor"/>
</svg>
