<svg width="16" height="16" viewBox="0 0 16 16" fill="none" xmlns="http://www.w3.org/2000/svg">
<rect x="1.83582" y="2.51807" width="12.3283" height="11.039" stroke="black"/>
<path fill-rule="evenodd" clip-rule="evenodd" d="M1.32129 4.99707C1.32129 4.72093 1.54515 4.49707 1.82129 4.49707H14.105C14.3812 4.49707 14.605 4.72093 14.605 4.99707C14.605 5.27321 14.3812 5.49707 14.105 5.49707H1.82129C1.54515 5.49707 1.32129 5.27321 1.32129 4.99707Z" fill="black"/>
<path fill-rule="evenodd" clip-rule="evenodd" d="M5.78591 7.15169C5.98286 7.34524 5.98561 7.66182 5.79205 7.85877L4.46986 9.20415L5.78899 10.5233C5.98425 10.7185 5.98426 11.0351 5.78899 11.2304C5.59373 11.4256 5.27715 11.4256 5.08189 11.2304L3.06177 9.21027L5.07883 7.15783C5.27238 6.96088 5.58895 6.95813 5.78591 7.15169Z" fill="black"/>
<path d="M10.5643 7.73597L12.2339 9.40559L10.5643 11.1045" stroke="black" stroke-linecap="round"/>
<path fill-rule="evenodd" clip-rule="evenodd" d="M9.03975 6.12207C9.306 6.19533 9.46245 6.47055 9.3892 6.7368L7.96481 11.914C7.89156 12.1803 7.61634 12.3367 7.35009 12.2635C7.08384 12.1902 6.92739 11.915 7.00064 11.6487L8.42503 6.47153C8.49828 6.20528 8.7735 6.04882 9.03975 6.12207Z" fill="black"/>
</svg>
