<svg width="16" height="16" viewBox="0 0 16 16" xmlns="http://www.w3.org/2000/svg">
<path d="M7.343 10.8019L11.9246 6.22029L11.2175 5.51318L7.343 9.38773L5.27211 7.31684L4.565 8.02395L7.343 10.8019Z" fill="currentColor"/>
<path fill-rule="evenodd" clip-rule="evenodd" d="M8 1.4126C4.41015 1.4126 1.5 4.32275 1.5 7.9126C1.5 11.5024 4.41015 14.4126 8 14.4126C11.5899 14.4126 14.5 11.5024 14.5 7.9126C14.5 4.32275 11.5899 1.4126 8 1.4126ZM2.5 7.9126C2.5 4.87503 4.96243 2.4126 8 2.4126C11.0376 2.4126 13.5 4.87503 13.5 7.9126C13.5 10.9502 11.0376 13.4126 8 13.4126C4.96243 13.4126 2.5 10.9502 2.5 7.9126Z" fill="currentColor"/>
</svg>
