<svg width="16" height="16" viewBox="0 0 16 16" xmlns="http://www.w3.org/2000/svg">
<path d="M13.4911 3.43262C13.497 3.40418 13.5 3.37552 13.5 3.34668C13.5 2.51825 11.0376 1.84668 8 1.84668C4.96243 1.84668 2.5 2.51825 2.5 3.34668C2.5 3.37552 2.50298 3.40418 2.50888 3.43262H2.5V3.49884C2.51263 3.50899 2.52624 3.51955 2.54088 3.53049C2.87317 4.27221 5.1906 4.84668 8 4.84668C10.8898 4.84668 13.259 4.23887 13.4827 3.46644C13.4888 3.46115 13.4945 3.45599 13.5 3.45096V3.43262H13.4911Z" fill="currentColor"/>
<path d="M12.5007 5.27538C12.8665 5.16466 13.2046 5.03645 13.5 4.88935V8.31925C13.2425 8.46825 12.9025 8.61437 12.4832 8.74745C11.3582 9.10453 9.77309 9.33333 8 9.33333C6.22691 9.33333 4.64177 9.10453 3.51677 8.74745C3.09749 8.61437 2.75749 8.46825 2.5 8.31924V4.91675C2.78186 5.05243 3.10046 5.17158 3.44338 5.27538C4.62518 5.63307 6.22609 5.84657 7.97203 5.84657C9.71797 5.84657 11.3189 5.63307 12.5007 5.27538Z" fill="currentColor"/>
<path d="M13.5 12.0734C13.5 13.2223 11.0376 14.1537 8 14.1537C4.96243 14.1537 2.5 13.2223 2.5 12.0734V9.43537C2.72161 9.53189 2.9611 9.62024 3.21424 9.70059C4.46138 10.0964 6.15332 10.3333 8 10.3333C9.84668 10.3333 11.5386 10.0964 12.7858 9.70059C13.0389 9.62024 13.2784 9.53189 13.5 9.43537V12.0734Z" fill="currentColor"/>
</svg>
