<svg width="16" height="16" viewBox="0 0 16 16" xmlns="http://www.w3.org/2000/svg">
<path d="M4.32079 2.37254C5.28398 2.08358 6.58465 1.91211 8 1.91211C9.41535 1.91211 10.716 2.08358 11.6792 2.37254C12.1576 2.51606 12.5812 2.69689 12.8963 2.92041C13.1985 3.13472 13.5 3.4626 13.5 3.91211C13.5 3.95052 13.4978 3.98803 13.4936 4.02467C13.4978 4.05082 13.5 4.07764 13.5 4.10498V11.4167C13.5 11.4192 13.5 11.4216 13.4999 11.4241C13.4959 11.8768 13.2632 12.2583 12.9506 12.5539C12.6364 12.8511 12.2085 13.0957 11.7212 13.2906C10.7439 13.6815 9.42804 13.9121 8 13.9121C6.57196 13.9121 5.25609 13.6815 4.27877 13.2906C3.7915 13.0957 3.36361 12.8511 3.04937 12.5539C2.7369 12.2584 2.50421 11.877 2.50006 11.4244L2.5 11.4167V4.10498C2.5 4.07764 2.50219 4.05082 2.50642 4.02467C2.5022 3.98803 2.5 3.95052 2.5 3.91211C2.5 3.4626 2.80151 3.13472 3.10366 2.92041C3.4188 2.69689 3.84238 2.51606 4.32079 2.37254ZM3.50291 3.91211C3.51314 3.93419 3.55089 3.99502 3.68219 4.08815C3.87308 4.22354 4.18173 4.36593 4.60814 4.49386C5.4546 4.74779 6.65393 4.91211 8 4.91211C9.34607 4.91211 10.5454 4.74779 11.3919 4.49386C11.8183 4.36593 12.1269 4.22354 12.3178 4.08815C12.4491 3.99502 12.4869 3.93419 12.4971 3.91211C12.4869 3.89003 12.4491 3.8292 12.3178 3.73607C12.1269 3.60068 11.8183 3.45829 11.3919 3.33036C10.5454 3.07643 9.34607 2.91211 8 2.91211C6.65393 2.91211 5.4546 3.07643 4.60814 3.33036C4.18173 3.45829 3.87308 3.60068 3.68219 3.73607C3.55089 3.8292 3.51314 3.89003 3.50291 3.91211ZM12.5 11.4121V8.8998C12.2676 9.04722 12.0044 9.17728 11.7212 9.29056C10.7439 9.68149 9.42804 9.91211 8 9.91211C6.57196 9.91211 5.25609 9.68149 4.27877 9.29056C3.99557 9.17728 3.73243 9.04722 3.5 8.8998L3.5 11.4121C3.50015 11.5065 3.54606 11.6472 3.73648 11.8273C3.92826 12.0087 4.23261 12.1951 4.65016 12.3621C5.48248 12.695 6.66661 12.9121 8 12.9121C9.33339 12.9121 10.5175 12.695 11.3498 12.3621C11.7674 12.1951 12.0717 12.0087 12.2635 11.8273C12.4543 11.6469 12.5 11.5065 12.5 11.4121ZM12.5 7.41211V5.13699C12.2567 5.25739 11.9787 5.36184 11.6792 5.45168C10.716 5.74064 9.41535 5.91211 8 5.91211C6.58465 5.91211 5.28398 5.74064 4.32079 5.45168C4.02133 5.36184 3.74335 5.25739 3.5 5.13699V7.41211C3.5001 7.50647 3.54596 7.64714 3.73648 7.82732C3.92826 8.00869 4.23261 8.19507 4.65016 8.36208C5.48248 8.69501 6.66661 8.91211 8 8.91211C9.33339 8.91211 10.5175 8.69501 11.3498 8.36208C11.7674 8.19507 12.0717 8.00869 12.2635 7.82732C12.4543 7.64695 12.5 7.50647 12.5 7.41211Z" fill="currentColor"/>
</svg>
