<svg width="16" height="16" viewBox="0 0 16 16" xmlns="http://www.w3.org/2000/svg">
<path d="M8 1.5C4.41015 1.5 1.5 4.41015 1.5 8C1.5 11.5899 4.41015 14.5 8 14.5C11.5899 14.5 14.5 11.5899 14.5 8C14.5 4.41015 11.5899 1.5 8 1.5ZM3.99047 4.23518C4.21191 4.97111 4.80724 5.85714 5.85713 5.85714C7.57142 5.85714 8.85713 7.99999 7.57142 8.42857C6.54285 8.77142 5.42856 9.28571 5.42856 10.1429C5.42856 10.4268 5.54819 10.8462 5.67442 11.2888C5.86786 11.967 6.07682 12.6996 5.89467 13.0827C3.90176 12.2562 2.5 10.2918 2.5 8C2.5 6.54346 3.06618 5.21916 3.99047 4.23518ZM11.2932 12.4055C11.0722 11.7995 11 10.8958 11 10.5714C11 10.1429 11.4286 9.71428 11.8571 9.71428C12.1699 9.71428 12.6697 9.9425 13.0281 10.2324C12.6435 11.0974 12.0422 11.8447 11.2932 12.4055ZM13.3632 6.7757C12.3888 6.9132 10.928 6.49821 10.5714 5.42857C10.2808 4.55684 10.7127 4.04941 11.0654 3.63491C11.1024 3.59136 11.1386 3.54883 11.173 3.50701C12.2616 4.27722 13.058 5.43311 13.3632 6.7757Z" fill="currentColor"/>
</svg>
