<svg width="16" height="16" viewBox="0 0 16 16" xmlns="http://www.w3.org/2000/svg">
<path d="M8 1.5C4.41015 1.5 1.5 4.41015 1.5 8C1.5 11.5899 4.41015 14.5 8 14.5C11.5899 14.5 14.5 11.5899 14.5 8C14.5 4.41015 11.5899 1.5 8 1.5ZM4.63833 3.6466C5.56789 2.92775 6.73399 2.5 8 2.5C8.91222 2.5 9.77257 2.72208 10.5299 3.11513C10.5242 3.13111 10.5191 3.14754 10.5149 3.16438C10.4999 3.22463 10.4663 3.29256 10.3898 3.41374C10.3784 3.43173 10.3656 3.45153 10.3518 3.47293C10.2845 3.57743 10.1926 3.72003 10.119 3.87632C9.91613 4.30748 9.84631 4.83428 10.0971 5.58662C10.3725 6.4127 11.0501 6.93329 11.7398 7.18411C12.2927 7.38514 12.9229 7.43817 13.4547 7.29096C13.4846 7.52308 13.5 7.75974 13.5 8C13.5 8.64916 13.3875 9.27205 13.181 9.85025C13.0733 9.74796 12.9574 9.65352 12.8382 9.57098C12.5702 9.38548 12.2189 9.21422 11.8571 9.21422C11.4802 9.21422 11.1452 9.39763 10.9143 9.62852C10.6834 9.85941 10.5 10.1945 10.5 10.5714V10.5761C10.5 10.7917 10.5 11.2453 10.5574 11.7048C10.5864 11.9363 10.6315 12.184 10.7048 12.4119C10.7367 12.511 10.7767 12.6157 10.8283 12.718C10.0019 13.2145 9.0343 13.5 8 13.5C7.43525 13.5 6.89037 13.4149 6.37751 13.2568C6.4884 13.0187 6.48485 12.7541 6.46916 12.5711C6.44486 12.2876 6.36674 11.9681 6.28596 11.6719C6.25007 11.5404 6.21456 11.4163 6.18006 11.2957C6.13078 11.1235 6.08355 10.9584 6.04021 10.789C5.96757 10.505 5.92858 10.2895 5.92858 10.1428C5.92858 9.95931 6.04262 9.74766 6.39663 9.50544C6.7442 9.26763 7.22542 9.07088 7.72955 8.90284C8.2214 8.73889 8.52357 8.37302 8.583 7.90949C8.6366 7.49143 8.48489 7.06527 8.26112 6.71364C7.81308 6.00957 6.91744 5.35707 5.85715 5.35707C5.38611 5.35707 5.10635 5.12922 4.91898 4.80394C4.7173 4.45379 4.64286 4.01073 4.64286 3.71422C4.64286 3.69128 4.64132 3.66871 4.63833 3.6466ZM3.74344 4.51668C3.80746 4.77737 3.90643 5.04956 4.05245 5.30306C4.37937 5.87064 4.95676 6.35707 5.85715 6.35707C6.51114 6.35707 7.1155 6.776 7.41746 7.25051C7.56869 7.48816 7.60448 7.67808 7.59112 7.78233C7.58358 7.84113 7.56433 7.90382 7.41332 7.95416C6.88887 8.12898 6.29866 8.3608 5.83195 8.68013C5.37167 8.99506 4.92858 9.46912 4.92858 10.1428C4.92858 10.4246 4.99673 10.7449 5.07141 11.0368C5.1165 11.2131 5.17245 11.4092 5.22595 11.5967C5.25981 11.7153 5.29268 11.8305 5.32119 11.9351C5.40113 12.2282 5.45693 12.4712 5.47281 12.6565C5.48118 12.7541 5.47554 12.804 5.47226 12.8236C5.4602 12.8381 5.44909 12.8531 5.43892 12.8686C3.69134 11.9474 2.5 10.1128 2.5 8C2.5 6.67813 2.96633 5.46518 3.74344 4.51668ZM11.6574 12.1078C11.6572 12.1071 11.657 12.1065 11.6568 12.1059C11.6095 11.9587 11.5744 11.7779 11.5497 11.5808C11.5004 11.1866 11.5 10.7864 11.5 10.5714C11.5 10.5197 11.5309 10.4262 11.6214 10.3356C11.712 10.2451 11.8055 10.2142 11.8571 10.2142C11.924 10.2142 12.0726 10.2572 12.269 10.3932C12.4478 10.517 12.6105 10.6799 12.7157 10.8323C12.4285 11.3094 12.071 11.7393 11.6574 12.1078ZM13.2363 6.3124C12.9534 6.40536 12.5209 6.40406 12.0816 6.24432C11.5928 6.06657 11.199 5.73001 11.0458 5.27039C10.868 4.73701 10.941 4.4781 11.0238 4.30211C11.0666 4.21124 11.115 4.13577 11.1795 4.03509C11.1969 4.00805 11.2154 3.97919 11.2352 3.94773C11.2838 3.87085 11.3407 3.77774 11.391 3.66943C12.2451 4.33914 12.8961 5.25604 13.2363 6.3124Z" fill="currentColor"/>
</svg>
