<svg width="16" height="16" viewBox="0 0 16 16" fill="none" xmlns="http://www.w3.org/2000/svg">
<path d="M1.8479 4.33594C2.12404 4.33594 2.3479 4.5598 2.3479 4.83594C2.3479 5.70513 2.89456 6.56041 3.92089 7.22261C4.94207 7.88149 6.38287 8.30537 8 8.30537C9.61713 8.30537 11.0579 7.88149 12.0791 7.22261C13.1054 6.56041 13.6521 5.70513 13.6521 4.83594C13.6521 4.5598 13.876 4.33594 14.1521 4.33594C14.4282 4.33594 14.6521 4.5598 14.6521 4.83594C14.6521 6.15899 13.8216 7.28843 12.6213 8.06288C11.4158 8.84065 9.78058 9.30537 8 9.30537C6.21942 9.30537 4.58417 8.84065 3.37873 8.06288C2.17843 7.28843 1.3479 6.15899 1.3479 4.83594C1.3479 4.5598 1.57176 4.33594 1.8479 4.33594Z" fill="black"/>
<path d="M7.99994 8.6167C8.27608 8.6167 8.49994 8.84056 8.49994 9.1167V11.1638C8.49994 11.44 8.27608 11.6638 7.99994 11.6638C7.7238 11.6638 7.49994 11.44 7.49994 11.1638V9.1167C7.49994 8.84056 7.7238 8.6167 7.99994 8.6167Z" fill="black"/>
<path d="M11.3882 7.89268C11.5727 7.68725 11.8719 7.68725 12.0565 7.89268L13.5239 9.52634C13.7084 9.73177 13.7084 10.0648 13.5239 10.2703C13.3394 10.4757 13.0402 10.4757 12.8556 10.2703L11.3882 8.63662C11.2037 8.43118 11.2037 8.09811 11.3882 7.89268Z" fill="black"/>
<path d="M4.61192 7.89268C4.42739 7.68725 4.1282 7.68725 3.94367 7.89268L2.47622 9.52634C2.29169 9.73177 2.29169 10.0648 2.47622 10.2703C2.66076 10.4757 2.95994 10.4757 3.14447 10.2703L4.61192 8.63662C4.79645 8.43118 4.79645 8.09811 4.61192 7.89268Z" fill="black"/>
</svg>
