<svg width="16" height="16" viewBox="0 0 16 16" xmlns="http://www.w3.org/2000/svg">
<path d="M8 8.4126C6.3058 8.4126 4.79025 7.88381 3.70866 7.05182C2.62761 6.22024 2 5.10605 2 3.9126H1C1 5.48057 1.82746 6.86638 3.09895 7.84444C3.33586 8.02668 3.58888 8.19547 3.85605 8.34949L2.14645 10.0591L2.85356 10.7662L4.80847 8.81128C5.62815 9.14059 6.53912 9.34571 7.5 9.39883V11.9126H8.5V9.39883C9.46088 9.34571 10.3718 9.14059 11.1915 8.81128L13.1464 10.7662L13.8535 10.0591L12.144 8.34949C12.4111 8.19547 12.6641 8.02668 12.901 7.84444C14.1725 6.86638 15 5.48057 15 3.9126H14C14 5.10605 13.3724 6.22024 12.2913 7.05182C11.2097 7.88381 9.6942 8.4126 8 8.4126Z" fill="currentColor"/>
</svg>
