<svg width="16" height="16" viewBox="0 0 16 16" xmlns="http://www.w3.org/2000/svg">
<path d="M2.85353 13.8536L13.8535 2.85359L13.1464 2.14648L2.14642 13.1465L2.85353 13.8536Z" fill="currentColor"/>
<path d="M8 3.5C8.96875 3.5 9.89154 3.62651 10.7306 3.85523L8.51805 6.06775C8.35282 6.02356 8.17916 6 8 6C6.89543 6 6 6.89543 6 8C6 8.17916 6.02356 8.35282 6.06775 8.51805L3.26907 11.3167C1.87434 10.4941 1 9.3127 1 8C1 5.51472 4.13401 3.5 8 3.5Z" fill="currentColor"/>
<path d="M8 10C7.82084 10 7.64719 9.97644 7.48197 9.93226L5.26945 12.1448C6.10847 12.3735 7.03126 12.5 8 12.5C11.866 12.5 15 10.4853 15 8C15 6.6873 14.1257 5.50588 12.7309 4.68328L9.93226 7.48197C9.97644 7.64719 10 7.82084 10 8C10 9.10457 9.10457 10 8 10Z" fill="currentColor"/>
</svg>
