<svg width="16" height="16" viewBox="0 0 16 16" fill="none" xmlns="http://www.w3.org/2000/svg">
<path d="M3.92089 5.61352C2.89456 6.27572 2.3479 7.13099 2.3479 8.00019C2.3479 8.86939 2.89456 9.72466 3.92089 10.3869C4.94207 11.0457 6.38287 11.4696 8 11.4696C9.61713 11.4696 11.0579 11.0457 12.0791 10.3869C13.1054 9.72466 13.6521 8.86939 13.6521 8.00019C13.6521 7.13099 13.1054 6.27572 12.0791 5.61352C11.0579 4.95464 9.61713 4.53076 8 4.53076C6.38287 4.53076 4.94207 4.95464 3.92089 5.61352ZM3.37873 4.77324C4.58417 3.99547 6.21942 3.53076 8 3.53076C9.78058 3.53076 11.4158 3.99547 12.6213 4.77324C13.8216 5.54769 14.6521 6.67713 14.6521 8.00019C14.6521 9.32325 13.8216 10.4527 12.6213 11.2271C11.4158 12.0049 9.78058 12.4696 8 12.4696C6.21942 12.4696 4.58417 12.0049 3.37873 11.2271C2.17843 10.4527 1.3479 9.32325 1.3479 8.00019C1.3479 6.67713 2.17843 5.54769 3.37873 4.77324Z" fill="black"/>
<path d="M7.99998 6.99756C7.44612 6.99756 6.99713 7.44655 6.99713 8.00041C6.99713 8.55427 7.44612 9.00326 7.99998 9.00326C8.55384 9.00326 9.00284 8.55427 9.00284 8.00041C9.00284 7.44655 8.55384 6.99756 7.99998 6.99756ZM5.99713 8.00041C5.99713 6.89427 6.89384 5.99756 7.99998 5.99756C9.10613 5.99756 10.0028 6.89427 10.0028 8.00041C10.0028 9.10655 9.10613 10.0033 7.99998 10.0033C6.89384 10.0033 5.99713 9.10655 5.99713 8.00041Z" fill="black"/>
</svg>
