<svg width="16" height="16" viewBox="0 0 16 16" xmlns="http://www.w3.org/2000/svg">
<path d="M8 5.41211C6.61929 5.41211 5.5 6.5314 5.5 7.91211C5.5 9.29282 6.61929 10.4121 8 10.4121C9.38071 10.4121 10.5 9.29282 10.5 7.91211C10.5 6.5314 9.38071 5.41211 8 5.41211ZM6.5 7.91211C6.5 7.08368 7.17157 6.41211 8 6.41211C8.82843 6.41211 9.5 7.08368 9.5 7.91211C9.5 8.74054 8.82843 9.41211 8 9.41211C7.17157 9.41211 6.5 8.74054 6.5 7.91211Z" fill="currentColor"/>
<path d="M8 3.23389C6.1237 3.23389 4.40173 3.72183 3.13343 4.53717C1.87047 5.34908 1 6.53077 1 7.91246C1 9.29414 1.87047 10.4758 3.13343 11.2877C4.40173 12.1031 6.1237 12.591 8 12.591C9.8763 12.591 11.5983 12.1031 12.8666 11.2877C14.1295 10.4758 15 9.29414 15 7.91246C15 6.53077 14.1295 5.34908 12.8666 4.53717C11.5983 3.72183 9.8763 3.23389 8 3.23389ZM2 7.91246C2 6.98638 2.58461 6.07879 3.67418 5.37835C4.75842 4.68135 6.28645 4.23389 8 4.23389C9.71355 4.23389 11.2416 4.68135 12.3258 5.37835C13.4154 6.07879 14 6.98638 14 7.91246C14 8.83853 13.4154 9.74612 12.3258 10.4466C11.2416 11.1436 9.71355 11.591 8 11.591C6.28645 11.591 4.75842 11.1436 3.67418 10.4466C2.58461 9.74612 2 8.83853 2 7.91246Z" fill="currentColor"/>
</svg>
