<svg width="16" height="16" viewBox="0 0 16 16" fill="none" xmlns="http://www.w3.org/2000/svg">
<path d="M7.66087 6.48975V7.37006H4.49903C4.18975 7.37006 3.93903 7.62078 3.93903 7.93006V9.11785H2.2078C1.98689 9.11785 1.8078 9.29694 1.8078 9.51785V13.7774C1.8078 13.9983 1.98689 14.1774 2.2078 14.1774H6.45043C6.67134 14.1774 6.85043 13.9983 6.85043 13.7774V9.51785C6.85043 9.29694 6.67134 9.11785 6.45043 9.11785H4.73903V8.17006H11.2687V9.11785H9.54955C9.32864 9.11785 9.14955 9.29694 9.14955 9.51785V13.7774C9.14955 13.9983 9.32864 14.1774 9.54955 14.1774H13.7922C14.0131 14.1774 14.1922 13.9983 14.1922 13.7774V9.51785C14.1922 9.29694 14.0131 9.11785 13.7922 9.11785H12.0687V7.93006C12.0687 7.62078 11.818 7.37006 11.5087 7.37006H8.46087V6.48975H7.66087ZM2.6078 9.91785H6.05043V13.3774H2.6078V9.91785ZM9.94955 9.91785H13.3922V13.3774H9.94955V9.91785Z" fill="black"/>
<path d="M6.28273 2.62275H9.72535V6.04703H6.28273V2.62275ZM5.88273 1.82275C5.66181 1.82275 5.48273 2.00184 5.48273 2.22275V6.44703C5.48273 6.66794 5.66181 6.84703 5.88273 6.84703H10.1254C10.3463 6.84703 10.5254 6.66794 10.5254 6.44703V2.22275C10.5254 2.00184 10.3463 1.82275 10.1254 1.82275H5.88273Z" fill="black"/>
</svg>
