<svg width="16" height="16" viewBox="0 0 16 16" xmlns="http://www.w3.org/2000/svg">
<path d="M1.00008 6.01625C1.00008 3.79155 2.83119 2 5.07508 2C6.22172 2 7.25915 2.46727 8.00008 3.21991C8.74102 2.46727 9.77845 2 10.9251 2C13.169 2 15.0001 3.79155 15.0001 6.01625C15.0001 7.96921 13.8355 9.76853 12.456 11.1392C11.0709 12.5155 9.38083 13.5486 8.15577 13.9491L8.00008 14L7.8444 13.9491C6.61934 13.5486 4.92928 12.5155 3.54416 11.1392C2.16463 9.76853 1.00008 7.96921 1.00008 6.01625ZM5.07508 2.99782C3.37015 2.99782 2.00008 4.35583 2.00008 6.01625C2.00008 7.58062 2.94804 9.13877 4.24976 10.4322C5.48326 11.6578 6.95569 12.5662 8.00008 12.947C9.04448 12.5662 10.5169 11.6578 11.7504 10.4322C13.0521 9.13877 14.0001 7.58062 14.0001 6.01625C14.0001 4.35583 12.63 2.99782 10.9251 2.99782C9.88248 2.99782 8.96304 3.50644 8.40697 4.28336L8.00008 4.85184L7.5932 4.28336C7.03713 3.50644 6.11769 2.99782 5.07508 2.99782Z" fill="currentColor"/>
</svg>
