<svg width="16" height="16" viewBox="0 0 16 16" fill="none" xmlns="http://www.w3.org/2000/svg">
<circle cx="7.99997" cy="7.99979" r="6.14139" stroke="black"/>
<path d="M8.34 9.6821H7.45898V9.25156C7.45898 8.90113 7.52987 8.60075 7.67164 8.35044C7.81342 8.09679 8.06658 7.82979 8.43114 7.54944C8.78894 7.27576 9.04379 7.02044 9.19569 6.78348C9.35097 6.54318 9.4286 6.26783 9.4286 5.95745C9.4286 5.62703 9.30877 5.35503 9.06911 5.14143C8.83282 4.92783 8.51046 4.82103 8.10202 4.82103C7.4573 4.82103 6.89021 5.063 6.40076 5.54693V4.52566C6.96785 4.17522 7.58219 4 8.24379 4C8.90202 4 9.42523 4.17188 9.81342 4.51564C10.205 4.85607 10.4008 5.3033 10.4008 5.85732C10.4008 6.24447 10.3096 6.59658 10.1273 6.91364C9.94506 7.2307 9.63958 7.56446 9.21088 7.91489C8.86658 8.19858 8.63536 8.42386 8.51721 8.59074C8.39907 8.75761 8.34 8.99124 8.34 9.29161V9.6821ZM7.89443 10.7284C8.07333 10.7284 8.22692 10.7902 8.35519 10.9136C8.48346 11.0371 8.54759 11.1873 8.54759 11.3642C8.54759 11.5444 8.48346 11.6963 8.35519 11.8198C8.22692 11.9399 8.07333 12 7.89443 12C7.72228 12 7.57206 11.9399 7.44379 11.8198C7.31552 11.6996 7.25139 11.5478 7.25139 11.3642C7.25139 11.184 7.31384 11.0338 7.43873 10.9136C7.567 10.7902 7.7189 10.7284 7.89443 10.7284Z" fill="black"/>
</svg>
