<svg width="16" height="16" viewBox="0 0 16 16" fill="none" xmlns="http://www.w3.org/2000/svg">
<path d="M2.99184 7.65712H1.72844C1.65092 7.65712 1.61409 7.56164 1.67153 7.50958L7.7738 1.66005C7.93916 1.51019 8.19242 1.51427 8.35287 1.66937L14.3386 7.51144C14.3934 7.5644 14.3559 7.65712 14.2797 7.65712H12.9499C12.8329 7.65712 12.738 7.75198 12.738 7.869V12.954C12.738 13.305 12.4535 13.5896 12.1024 13.5896L9.69474 13.5343V10.5681C9.69474 9.63196 8.93586 8.87308 7.99975 8.87308C7.06363 8.87308 6.30475 9.68724 6.30475 10.6234V13.5896H3.83934C3.48829 13.5896 3.20371 13.305 3.20371 12.954V7.869C3.20371 7.75198 3.10885 7.65712 2.99184 7.65712Z" stroke="black"/>
</svg>
