<svg width="16" height="16" viewBox="0 0 16 16" xmlns="http://www.w3.org/2000/svg">
<path d="M13.75 5.29167C13.75 7.38575 12.0338 9.08333 9.91667 9.08333C9.61093 9.08333 9.31356 9.04793 9.0285 8.98104L8.82143 11.25L6.63095 11.7917L6.08333 13.9583L2.25 14.5V12.875L6.77042 7.45833C6.33733 6.84417 6.08333 6.09726 6.08333 5.29167C6.08333 3.19759 7.79957 1.5 9.91667 1.5C12.0338 1.5 13.75 3.19759 13.75 5.29167ZM9.89154 6.83693C10.72 6.83693 11.3915 6.16536 11.3915 5.33693C11.3915 4.5085 10.72 3.83693 9.89154 3.83693C9.06311 3.83693 8.39154 4.5085 8.39154 5.33693C8.39154 6.16536 9.06311 6.83693 9.89154 6.83693Z" fill="currentColor"/>
</svg>
