<svg width="16" height="16" viewBox="0 0 16 16" xmlns="http://www.w3.org/2000/svg">
<path d="M9.85352 3.95117C9.02509 3.95117 8.35352 4.62274 8.35352 5.45117C8.35352 6.2796 9.02509 6.95117 9.85352 6.95117C10.6819 6.95117 11.3535 6.2796 11.3535 5.45117C11.3535 4.62274 10.6819 3.95117 9.85352 3.95117ZM9.35352 5.45117C9.35352 5.17503 9.57737 4.95117 9.85352 4.95117C10.1297 4.95117 10.3535 5.17503 10.3535 5.45117C10.3535 5.72731 10.1297 5.95117 9.85352 5.95117C9.57737 5.95117 9.35352 5.72731 9.35352 5.45117Z" fill="currentColor"/>
<path d="M9.75 1.5C7.54086 1.5 5.75 3.29086 5.75 5.5C5.75 6.21137 5.93609 6.88033 6.26225 7.45972L2.25 12.3203V14.5765L6.65353 13.9474L7.16231 11.9123L9.21603 11.3989L9.38889 9.48389C9.50792 9.49456 9.62837 9.5 9.75 9.5C11.9591 9.5 13.75 7.70914 13.75 5.5C13.75 3.29086 11.9591 1.5 9.75 1.5ZM6.75 5.5C6.75 3.84315 8.09315 2.5 9.75 2.5C11.4069 2.5 12.75 3.84315 12.75 5.5C12.75 7.15685 11.4069 8.5 9.75 8.5C9.51 8.5 9.27721 8.47192 9.05448 8.41908L8.49297 8.28587L8.28397 10.6011L6.33769 11.0877L5.84647 13.0526L3.25 13.4235V12.6797L7.5047 7.52543L7.28744 7.21395C6.94863 6.72822 6.75 6.13806 6.75 5.5Z" fill="currentColor"/>
</svg>
