<svg width="16" height="16" viewBox="0 0 16 16" fill="none" xmlns="http://www.w3.org/2000/svg">
<path d="M9.59218 3.79877C8.64896 3.79877 7.88434 4.56339 7.88434 5.50661C7.88434 6.44982 8.64896 7.21445 9.59218 7.21445C10.5354 7.21445 11.3 6.44982 11.3 5.50661C11.3 4.56339 10.5354 3.79877 9.59218 3.79877ZM8.88434 5.50661C8.88434 5.11568 9.20125 4.79877 9.59218 4.79877C9.98311 4.79877 10.3 5.11568 10.3 5.50661C10.3 5.89753 9.98311 6.21445 9.59218 6.21445C9.20125 6.21445 8.88434 5.89753 8.88434 5.50661Z" fill="black"/>
<path d="M9.43593 1.42334C7.16262 1.42334 5.31973 3.26623 5.31973 5.53954C5.31973 6.33479 5.54569 7.07827 5.93673 7.70811L2.0365 12.1653L2.38162 14.4776L6.20427 14.0495L6.73945 11.8844L8.79526 11.4683L9.0274 9.63568C9.16188 9.64895 9.29817 9.65574 9.43593 9.65574C11.7092 9.65574 13.5521 7.81285 13.5521 5.53954C13.5521 3.26623 11.7092 1.42334 9.43593 1.42334ZM6.31973 5.53954C6.31973 3.81851 7.7149 2.42334 9.43593 2.42334C11.157 2.42334 12.5521 3.81851 12.5521 5.53954C12.5521 7.26057 11.157 8.65574 9.43593 8.65574C9.18621 8.65574 8.94397 8.62646 8.71221 8.57138L8.17053 8.44263L7.89339 10.6306L5.92059 11.0299L5.40066 13.1332L3.22835 13.3765L3.09387 12.4755L7.21612 7.76457L6.96552 7.43924C6.56041 6.91333 6.31973 6.25525 6.31973 5.53954Z" fill="black"/>
</svg>
