<svg width="16" height="16" viewBox="0 0 16 16" xmlns="http://www.w3.org/2000/svg">
<path d="M8 1.5C6.34315 1.5 5 2.84315 5 4.5V6.5H6V4.5C6 3.39543 6.89543 2.5 8 2.5C9.10457 2.5 10 3.39543 10 4.5V6.5H11V4.5C11 2.84315 9.65685 1.5 8 1.5Z" fill="currentColor"/>
<path d="M6 11.5V9.5H5V11.5C5 13.1569 6.34315 14.5 8 14.5C9.65685 14.5 11 13.1569 11 11.5V9.5H10V11.5C10 12.6046 9.10457 13.5 8 13.5C6.89543 13.5 6 12.6046 6 11.5Z" fill="currentColor"/>
<path d="M7.5 5.5V10.5H8.5V5.5H7.5Z" fill="currentColor"/>
</svg>
