<svg width="16" height="16" viewBox="0 0 16 16" xmlns="http://www.w3.org/2000/svg">
<path d="M7.99998 5.41226C6.61927 5.41226 5.49998 6.53154 5.49998 7.91226C5.49998 9.29297 6.61927 10.4123 7.99998 10.4123C9.3807 10.4123 10.5 9.29297 10.5 7.91226C10.5 6.53154 9.3807 5.41226 7.99998 5.41226ZM6.49998 7.91226C6.49998 7.08383 7.17156 6.41226 7.99998 6.41226C8.82841 6.41226 9.49998 7.08383 9.49998 7.91226C9.49998 8.74068 8.82841 9.41226 7.99998 9.41226C7.17156 9.41226 6.49998 8.74068 6.49998 7.91226Z" fill="currentColor"/>
<path d="M11.8891 4.02351C9.74119 1.87563 6.25878 1.87563 4.1109 4.02351C1.96301 6.17139 1.96301 9.6538 4.1109 11.8017L7.64643 15.3372C7.84169 15.5325 8.15828 15.5325 8.35354 15.3372L11.8891 11.8017C14.037 9.6538 14.037 6.17139 11.8891 4.02351ZM4.818 4.73062C6.57536 2.97326 9.42461 2.97326 11.182 4.73062C12.9393 6.48798 12.9393 9.33722 11.182 11.0946L7.99998 14.2766L4.818 11.0946C3.06065 9.33722 3.06064 6.48798 4.818 4.73062Z" fill="currentColor"/>
</svg>
