<svg width="16" height="16" viewBox="0 0 16 16" xmlns="http://www.w3.org/2000/svg">
<path d="M4.81802 8.97739C3.06066 7.19803 3.06066 4.31311 4.81802 2.53374C6.57538 0.754378 9.42462 0.754378 11.182 2.53374C12.9393 4.31311 12.9393 7.19803 11.182 8.97739L9.33227 10.8503C12.0048 11.0522 14 11.8488 14 12.8008C14 13.9054 11.3137 14.8008 8 14.8008C4.68629 14.8008 2 13.9054 2 12.8008C2 11.8488 3.99521 11.0522 6.66772 10.8503L4.81802 8.97739ZM6.67438 10.857C5.11676 10.9937 4 11.3647 4 11.8008C4 12.3531 5.79086 12.8008 8 12.8008C10.2091 12.8008 12 12.3531 12 11.8008C12 11.3647 10.8832 10.9937 9.32561 10.857L8 12.1992L6.67438 10.857ZM9.99999 5.75557C9.99999 4.63717 9.10456 3.73052 7.99999 3.73052C6.89542 3.73052 5.99999 4.63717 5.99999 5.75557C5.99999 6.87397 6.89542 7.78061 7.99999 7.78061C9.10456 7.78061 9.99999 6.87397 9.99999 5.75557Z" fill="currentColor"/>
</svg>
