<svg width="16" height="16" viewBox="0 0 16 16" xmlns="http://www.w3.org/2000/svg">
<path d="M6 6.05127C6 4.9467 6.89543 4.05127 8 4.05127C9.10457 4.05127 10 4.9467 10 6.05127C10 7.15584 9.10457 8.05127 8 8.05127C6.89543 8.05127 6 7.15584 6 6.05127ZM8 5.05127C7.44772 5.05127 7 5.49898 7 6.05127C7 6.60355 7.44772 7.05127 8 7.05127C8.55228 7.05127 9 6.60355 9 6.05127C9 5.49898 8.55228 5.05127 8 5.05127Z" fill="currentColor"/>
<path d="M4.81803 9.23325C3.06067 7.47589 3.06067 4.62665 4.81803 2.86929C6.57539 1.11193 9.42463 1.11193 11.182 2.86929C12.9393 4.62665 12.9393 7.47589 11.182 9.23325L8.00001 12.4152L4.81803 9.23325ZM5.52513 3.5764C4.1583 4.94323 4.1583 7.15931 5.52513 8.52614L8.00001 11.001L10.4749 8.52614C11.8417 7.15931 11.8417 4.94323 10.4749 3.5764C9.10805 2.20956 6.89197 2.20956 5.52513 3.5764Z" fill="currentColor"/>
<path d="M3 12.1833C3 12.1748 3.00779 12.0675 3.26104 11.8882C3.50162 11.7179 3.88161 11.5453 4.39376 11.3952L4.1124 10.4355C3.54603 10.6016 3.04947 10.8127 2.68315 11.0721C2.32949 11.3225 2 11.6911 2 12.1833C2 12.6538 2.30207 13.0117 2.63362 13.2585C2.9744 13.5123 3.43566 13.7196 3.96072 13.885C5.01672 14.2175 6.44473 14.4153 8 14.4153C9.55527 14.4153 10.9833 14.2175 12.0393 13.885C12.5643 13.7196 13.0256 13.5123 13.3664 13.2585C13.6979 13.0117 14 12.6538 14 12.1833C14 11.6911 13.6705 11.3225 13.3168 11.0721C12.9505 10.8127 12.454 10.6016 11.8876 10.4355L11.6062 11.3952C12.1184 11.5453 12.4984 11.7179 12.739 11.8882C12.9922 12.0675 13 12.1748 13 12.1833C13 12.1911 12.9943 12.2889 12.7692 12.4564C12.5533 12.6172 12.2091 12.783 11.7389 12.9311C10.8043 13.2255 9.4823 13.4153 8 13.4153C6.5177 13.4153 5.19571 13.2255 4.2611 12.9311C3.79086 12.783 3.44666 12.6172 3.23082 12.4564C3.00574 12.2889 3 12.1911 3 12.1833Z" fill="currentColor"/>
</svg>
