<svg width="16" height="16" viewBox="0 0 16 16" xmlns="http://www.w3.org/2000/svg">
<path d="M4.41998 8C4.41998 8.82843 3.74841 9.5 2.91998 9.5C2.09156 9.5 1.41998 8.82843 1.41998 8C1.41998 7.17157 2.09156 6.5 2.91998 6.5C3.74841 6.5 4.41998 7.17157 4.41998 8Z" fill="currentColor"/>
<path d="M9.5 8C9.5 8.82843 8.82843 9.5 8 9.5C7.17157 9.5 6.5 8.82843 6.5 8C6.5 7.17157 7.17157 6.5 8 6.5C8.82843 6.5 9.5 7.17157 9.5 8Z" fill="currentColor"/>
<path d="M13.08 9.5C13.9084 9.5 14.58 8.82843 14.58 8C14.58 7.17157 13.9084 6.5 13.08 6.5C12.2516 6.5 11.58 7.17157 11.58 8C11.58 8.82843 12.2516 9.5 13.08 9.5Z" fill="currentColor"/>
</svg>
