<svg width="16" height="16" viewBox="0 0 16 16" xmlns="http://www.w3.org/2000/svg">
<path d="M1.50003 7.9126C1.50003 7.08417 2.1716 6.4126 3.00003 6.4126C3.82846 6.4126 4.50003 7.08417 4.50003 7.9126C4.50003 8.74102 3.82846 9.4126 3.00003 9.4126C2.1716 9.4126 1.50003 8.74102 1.50003 7.9126ZM3.00003 7.4126C2.72389 7.4126 2.50003 7.63646 2.50003 7.9126C2.50003 8.18874 2.72389 8.4126 3.00003 8.4126C3.27617 8.4126 3.50003 8.18874 3.50003 7.9126C3.50003 7.63646 3.27617 7.4126 3.00003 7.4126Z" fill="currentColor"/>
<path d="M6.50003 7.9126C6.50003 7.08417 7.1716 6.4126 8.00003 6.4126C8.82846 6.4126 9.50003 7.08417 9.50003 7.9126C9.50003 8.74102 8.82846 9.4126 8.00003 9.4126C7.1716 9.4126 6.50003 8.74102 6.50003 7.9126ZM8.00003 7.4126C7.72389 7.4126 7.50003 7.63646 7.50003 7.9126C7.50003 8.18874 7.72389 8.4126 8.00003 8.4126C8.27617 8.4126 8.50003 8.18874 8.50003 7.9126C8.50003 7.63646 8.27617 7.4126 8.00003 7.4126Z" fill="currentColor"/>
<path d="M13 6.4126C12.1716 6.4126 11.5 7.08417 11.5 7.9126C11.5 8.74102 12.1716 9.4126 13 9.4126C13.8285 9.4126 14.5 8.74102 14.5 7.9126C14.5 7.08417 13.8285 6.4126 13 6.4126ZM12.5 7.9126C12.5 7.63646 12.7239 7.4126 13 7.4126C13.2762 7.4126 13.5 7.63646 13.5 7.9126C13.5 8.18874 13.2762 8.4126 13 8.4126C12.7239 8.4126 12.5 8.18874 12.5 7.9126Z" fill="currentColor"/>
</svg>
