<svg width="16" height="16" viewBox="0 0 16 16" fill="none" xmlns="http://www.w3.org/2000/svg">
<path fill-rule="evenodd" clip-rule="evenodd" d="M8.07115 4.15454C6.10985 4.15454 4.72508 5.54447 4.72508 7.02031V10.5889C4.77465 10.8584 4.71598 11.1514 4.51602 11.3989L4.15493 11.8458H11.9775L11.616 11.3755C11.4361 11.1416 11.379 10.8706 11.4172 10.6182V7.02031C11.4172 5.54447 10.0325 4.15454 8.07115 4.15454ZM12.4088 10.766C12.4064 10.7629 12.4086 10.7584 12.4125 10.7584C12.4151 10.7584 12.4172 10.7563 12.4172 10.7537V7.02031C12.4172 4.8853 10.4714 3.15454 8.07115 3.15454C5.67088 3.15454 3.72508 4.8853 3.72508 7.02031V10.751C3.72508 10.7551 3.72838 10.7584 3.73245 10.7584C3.73865 10.7584 3.74209 10.7656 3.73819 10.7704L2.9046 11.8021C2.56595 12.2212 2.86426 12.8458 3.40311 12.8458H12.6912C13.2291 12.8458 13.5332 12.2286 13.2053 11.8021L12.4088 10.766ZM12.4125 11.7584C12.6343 11.7584 12.8393 11.6865 13.0055 11.5648C12.8445 11.685 12.6424 11.7584 12.4125 11.7584ZM3.73245 11.7584C3.53492 11.7584 3.35825 11.7042 3.2106 11.6129C3.3628 11.7052 3.54142 11.7584 3.73245 11.7584Z" fill="black"/>
<path fill-rule="evenodd" clip-rule="evenodd" d="M6.96844 1.82373C6.96844 1.54759 7.1923 1.32373 7.46844 1.32373L8.58893 1.32373C8.86507 1.32373 9.08893 1.54759 9.08893 1.82373C9.08893 2.09987 8.86507 2.32373 8.58893 2.32373L7.46844 2.32373C7.1923 2.32373 6.96844 2.09987 6.96844 1.82373Z" fill="black"/>
<path fill-rule="evenodd" clip-rule="evenodd" d="M6.45141 14.1766C6.45141 13.9005 6.67527 13.6766 6.95141 13.6766H9.41107C9.68721 13.6766 9.91107 13.9005 9.91107 14.1766C9.91107 14.4527 9.68721 14.6766 9.41107 14.6766H6.95141C6.67527 14.6766 6.45141 14.4527 6.45141 14.1766Z" fill="black"/>
</svg>
