<svg width="16" height="16" viewBox="0 0 16 16" xmlns="http://www.w3.org/2000/svg">
<path d="M9.56113 2.69378C9.34818 2.78143 9.21953 2.8721 9.16953 2.92358L9.16015 2.93324L3.02397 8.92017C2.52648 9.44146 2.02984 11.0036 3.32434 12.4101C4.02881 13.1755 4.76946 13.4719 5.43374 13.4979C6.10191 13.5241 6.73881 13.2784 7.23379 12.8756L14.02 6.46243L14.7068 7.18923L7.89527 13.6264L7.88206 13.6373C7.21923 14.1829 6.34229 14.5343 5.39461 14.4971C4.4373 14.4596 3.45383 14.0275 2.58854 13.0873C0.894155 11.2463 1.48199 9.07685 2.30944 8.2205L2.31456 8.21521L8.45746 2.22147C8.63933 2.03647 8.90335 1.88313 9.18049 1.76905C9.46911 1.65025 9.8104 1.55816 10.1705 1.51958C10.8815 1.4434 11.7473 1.57137 12.3826 2.2274C12.9051 2.76693 13.3089 3.3686 13.4487 4.01326C13.5945 4.68603 13.4407 5.35324 12.9478 5.95481L12.9302 5.97618L7.2395 11.5381L7.23171 11.5451C6.87395 11.8666 6.36211 12.0544 5.87327 12.0761C5.38447 12.0979 4.8147 11.9534 4.45515 11.4727C3.81277 10.6139 4.20108 9.66457 4.44523 9.31399L4.47264 9.27462L10.2714 3.63837L10.9683 4.35545L5.24334 9.92006C5.11715 10.1271 5.00523 10.5386 5.25592 10.8737C5.35034 11 5.54065 11.0899 5.8289 11.0771C6.11316 11.0645 6.39154 10.9519 6.55652 10.8073L12.1907 5.30072C12.4849 4.93186 12.5483 4.57991 12.4714 4.22517C12.387 3.83584 12.1213 3.39509 11.6642 2.92308C11.32 2.56757 10.8114 2.45664 10.2771 2.51389C10.0145 2.54202 9.76531 2.60973 9.56113 2.69378Z" fill="currentColor"/>
</svg>
