<svg width="16" height="16" viewBox="0 0 16 16" fill="none" xmlns="http://www.w3.org/2000/svg">
<path d="M1.54842 3.5332C1.54842 3.25706 1.77228 3.0332 2.04842 3.0332H13.9516C14.2277 3.0332 14.4516 3.25706 14.4516 3.5332V12.467C14.4516 12.7432 14.2277 12.967 13.9516 12.967H2.04842C1.77228 12.967 1.54842 12.7432 1.54842 12.467V3.5332ZM2.54842 4.0332V11.967H13.4516V4.0332H2.54842Z" fill="black"/>
<path d="M6.38636 6.93278C6.54883 6.83756 6.75102 6.84171 6.90945 6.9435L11.0969 9.63401C11.3292 9.78328 11.3965 10.0926 11.2473 10.3249C11.098 10.5573 10.7887 10.6246 10.5563 10.4753L6.62715 7.95075L2.30124 10.486C2.06299 10.6257 1.75667 10.5457 1.61705 10.3075C1.47742 10.0692 1.55736 9.7629 1.79561 9.62328L6.38636 6.93278Z" fill="black"/>
<path d="M11.3627 6.82936C11.5225 6.73824 11.7194 6.74222 11.8754 6.83974L14.188 8.28543C14.4221 8.43181 14.4933 8.74029 14.3469 8.97445C14.2005 9.2086 13.892 9.27975 13.6579 9.13338L11.5986 7.846L9.3227 9.14375C9.08282 9.28053 8.77747 9.19696 8.64068 8.95707C8.50389 8.71719 8.58747 8.41184 8.82735 8.27505L11.3627 6.82936Z" fill="black"/>
</svg>
