<svg width="16" height="16" viewBox="0 0 16 16" fill="none" xmlns="http://www.w3.org/2000/svg">
<path d="M5.48876 10.3789C5.54381 10.6495 5.36908 10.9135 5.09849 10.9686C4.39827 11.111 3.85159 11.2977 3.49351 11.4972C3.31449 11.597 3.20425 11.6881 3.14368 11.7594C3.11465 11.7935 3.10133 11.8181 3.09549 11.832C3.09263 11.8389 3.09148 11.8433 3.09101 11.8455C3.09056 11.8477 3.09052 11.8489 3.09052 11.8495L3.09052 11.8495C3.09051 11.8501 3.0905 11.853 3.09277 11.8598C3.09529 11.8673 3.10132 11.8817 3.11544 11.9027C3.14505 11.9468 3.20328 12.0098 3.30779 12.085C3.51927 12.2373 3.85756 12.3951 4.32059 12.5361C5.24043 12.8163 6.54141 12.997 7.99999 12.997C9.45858 12.997 10.7596 12.8163 11.6794 12.5361C12.1424 12.3951 12.4807 12.2373 12.6922 12.085C12.7967 12.0098 12.8549 11.9468 12.8846 11.9027C12.8987 11.8817 12.9047 11.8673 12.9072 11.8598C12.9095 11.853 12.9095 11.8501 12.9095 11.8495V11.8495C12.9095 11.8489 12.9094 11.8477 12.909 11.8455C12.9085 11.8433 12.9074 11.8389 12.9045 11.832C12.8987 11.8181 12.8853 11.7935 12.8563 11.7594C12.7957 11.6881 12.6855 11.597 12.5065 11.4972C12.1484 11.2977 11.6017 11.111 10.9015 10.9686C10.6309 10.9135 10.4562 10.6495 10.5112 10.3789C10.5663 10.1083 10.8303 9.9336 11.1009 9.98865C11.8527 10.1416 12.5101 10.3545 12.9932 10.6237C13.4388 10.8719 13.9095 11.2688 13.9095 11.8495C13.9095 12.3159 13.6008 12.6631 13.2765 12.8965C12.9405 13.1385 12.4866 13.3356 11.9707 13.4928C10.9327 13.8089 9.52898 13.997 7.99999 13.997C6.47101 13.997 5.06725 13.8089 4.02924 13.4928C3.51335 13.3356 3.05944 13.1385 2.72345 12.8965C2.39922 12.6631 2.09052 12.3159 2.09052 11.8495C2.09052 11.2688 2.5612 10.8719 3.0068 10.6237C3.48985 10.3545 4.14732 10.1416 4.89911 9.98865C5.1697 9.9336 5.4337 10.1083 5.48876 10.3789Z" fill="black"/>
<path d="M7.99998 6.85775C6.75199 6.85775 5.7403 5.84605 5.7403 4.59806C5.7403 3.35007 6.75199 2.33838 7.99998 2.33838C9.24797 2.33838 10.2597 3.35007 10.2597 4.59806C10.2597 5.84605 9.24797 6.85775 7.99998 6.85775ZM7.99998 7.85775C9.80026 7.85775 11.2597 6.39834 11.2597 4.59806C11.2597 2.79779 9.80026 1.33838 7.99998 1.33838C6.19971 1.33838 4.7403 2.79779 4.7403 4.59806C4.7403 6.39834 6.19971 7.85775 7.99998 7.85775Z" fill="black"/>
<path d="M8 6.98975C8.27614 6.98975 8.5 7.2136 8.5 7.48975L8.5 11.2055C8.5 11.4817 8.27614 11.7055 8 11.7055C7.72386 11.7055 7.5 11.4817 7.5 11.2055L7.5 7.48975C7.5 7.2136 7.72386 6.98975 8 6.98975Z" fill="black"/>
</svg>
