<svg width="16" height="16" viewBox="0 0 16 16" xmlns="http://www.w3.org/2000/svg">
<path d="M8.40948 7.60363C9.87262 7.40394 11 6.1493 11 4.63135C11 2.97449 9.65685 1.63135 8 1.63135C6.34315 1.63135 5 2.97449 5 4.63135C5 6.08607 6.03542 7.29896 7.40948 7.57325V11.6313H8.40948V7.60363ZM8 2.63135C9.10457 2.63135 10 3.52678 10 4.63135C10 5.73592 9.10457 6.63135 8 6.63135C6.89543 6.63135 6 5.73592 6 4.63135C6 3.52678 6.89543 2.63135 8 2.63135Z" fill="currentColor"/>
<path d="M5.53651 11.0853L5.04612 11.1828C4.33309 11.3246 3.77555 11.5106 3.40983 11.7098C3.04846 11.9066 3.00571 12.0391 3.00067 12.0547C3.0045 12.0699 3.03198 12.1511 3.22001 12.2835C3.43627 12.4357 3.78171 12.5931 4.25358 12.7336C5.19088 13.0127 6.51558 13.1924 8 13.1924C9.48442 13.1924 10.8091 13.0127 11.7464 12.7336C12.2183 12.5931 12.5637 12.4357 12.78 12.2835C12.968 12.1511 12.9956 12.0703 12.9995 12.0552C12.9944 12.0395 12.9515 11.9066 12.5902 11.7098C12.2245 11.5106 11.6669 11.3246 10.9539 11.1828L10.4635 11.0853L10.6586 10.1045L11.149 10.202C11.9122 10.3538 12.579 10.565 13.0685 10.8316C13.517 11.0759 14 11.4703 14 12.055C14 12.5252 13.6823 12.8712 13.3556 13.1012C13.0152 13.3408 12.5552 13.5362 12.0318 13.692C10.9784 14.0056 9.55314 14.1924 8 14.1924C6.44686 14.1924 5.02155 14.0056 3.96824 13.692C3.44481 13.5362 2.98479 13.3408 2.64442 13.1012C2.31769 12.8712 2 12.5252 2 12.055C2 11.4703 2.48304 11.0759 2.93152 10.8316C3.42102 10.565 4.08777 10.3538 4.85104 10.202L5.34144 10.1045L5.53651 11.0853Z" fill="currentColor"/>
</svg>
