<svg width="16" height="16" viewBox="0 0 16 16" xmlns="http://www.w3.org/2000/svg">
<path d="M8.40948 6.97229C9.87262 6.77259 11 5.51795 11 4C11 2.34315 9.65685 1 8 1C6.34315 1 5 2.34315 5 4C5 5.45472 6.03542 6.66761 7.40948 6.9419V10.0096C4.37295 10.1084 2 10.9618 2 12C2 13.1046 4.68629 14 8 14C11.3137 14 14 13.1046 14 12C14 10.9413 11.5322 10.0747 8.40948 10.0046V6.97229ZM8.40948 10.0077C10.4263 10.0847 12 10.7234 12 11.5C12 12.3284 10.2091 13 8 13C5.79086 13 4 12.3284 4 11.5C4 10.7468 5.48034 10.1233 7.40948 10.0162V11.7192H8.40948V10.0077Z" fill="currentColor"/>
</svg>
