<svg width="16" height="16" viewBox="0 0 16 16" xmlns="http://www.w3.org/2000/svg">
<path d="M8.49997 7.4126H12V8.4126H8.49997V11.9126H7.49997V8.4126H4V7.4126H7.49997V3.9126H8.49997V7.4126Z" fill="currentColor"/>
<path d="M1.49998 7.9126C1.49998 4.32275 4.41013 1.4126 7.99998 1.4126C11.5898 1.4126 14.5 4.32275 14.5 7.9126C14.5 11.5024 11.5898 14.4126 7.99998 14.4126C4.41013 14.4126 1.49998 11.5024 1.49998 7.9126ZM7.99998 2.4126C4.96242 2.4126 2.49998 4.87503 2.49998 7.9126C2.49998 10.9502 4.96242 13.4126 7.99998 13.4126C11.0375 13.4126 13.5 10.9502 13.5 7.9126C13.5 4.87503 11.0375 2.4126 7.99998 2.4126Z" fill="currentColor"/>
</svg>
