<svg width="16" height="16" viewBox="0 0 16 16" xmlns="http://www.w3.org/2000/svg">
<path d="M7.99998 2.5C11.0376 2.5 13.5 4.96243 13.5 8C13.5 11.0376 11.0376 13.5 7.99998 13.5C4.96242 13.5 2.49998 11.0376 2.49998 8C2.49998 4.96243 4.96242 2.5 7.99998 2.5ZM1.49998 8C1.49998 11.5899 4.41013 14.5 7.99998 14.5C11.5898 14.5 14.5 11.5899 14.5 8C14.5 4.41015 11.5898 1.5 7.99998 1.5C4.41013 1.5 1.49998 4.41015 1.49998 8Z" fill="currentColor"/>
<path d="M7.99998 6.5C7.17156 6.5 6.49998 7.17157 6.49998 8C6.49998 8.82843 7.17156 9.5 7.99998 9.5C8.82841 9.5 9.49998 8.82843 9.49998 8C9.49998 7.17157 8.82841 6.5 7.99998 6.5ZM5.49998 8C5.49998 6.61929 6.61927 5.5 7.99998 5.5C9.3807 5.5 10.5 6.61929 10.5 8C10.5 9.38071 9.3807 10.5 7.99998 10.5C6.61927 10.5 5.49998 9.38071 5.49998 8Z" fill="currentColor"/>
</svg>
