<svg width="16" height="16" viewBox="0 0 16 16" xmlns="http://www.w3.org/2000/svg">
<path d="M7.95592 12.2745L11.2126 4.83057L3.76874 8.08727L7.02544 9.01775L7.95592 12.2745ZM7.83434 8.20885L6.71604 7.88934L9.27215 6.77104L8.15385 9.32715L7.83434 8.20885Z" fill="currentColor"/>
<path d="M8 1.5C4.41015 1.5 1.5 4.41015 1.5 8C1.5 11.5899 4.41015 14.5 8 14.5C11.5899 14.5 14.5 11.5899 14.5 8C14.5 4.41015 11.5899 1.5 8 1.5ZM2.5 8C2.5 4.96243 4.96243 2.5 8 2.5C11.0376 2.5 13.5 4.96243 13.5 8C13.5 11.0376 11.0376 13.5 8 13.5C4.96243 13.5 2.5 11.0376 2.5 8Z" fill="currentColor"/>
</svg>
