<svg width="16" height="16" viewBox="0 0 16 16" xmlns="http://www.w3.org/2000/svg">
<path d="M8 14.5C11.5899 14.5 14.5 11.5899 14.5 8C14.5 4.41015 11.5899 1.5 8 1.5C4.41015 1.5 1.5 4.41015 1.5 8C1.5 11.5899 4.41015 14.5 8 14.5ZM9.08797 6.00897C8.85531 5.38178 8.27732 5.02238 7.74637 5.13112C7.1814 5.24684 6.77738 5.45476 6.29775 5.8895L5.62616 5.14858C6.22638 4.60453 6.7898 4.30628 7.54572 4.15146C8.67915 3.91932 9.66731 4.6955 10.0255 5.66117C10.3877 6.63733 10.0973 7.73575 9.30004 8.40542L9.08192 8.58864C8.65919 8.94374 8.41508 9.46758 8.41508 10.0197V10.232H7.41508V10.0197C7.41508 9.17218 7.7898 8.36804 8.43873 7.82294L8.65685 7.63972C9.13059 7.24177 9.30316 6.58905 9.08797 6.00897ZM8.5 11.6022C8.5 11.8783 8.27614 12.1022 8 12.1022C7.72386 12.1022 7.5 11.8783 7.5 11.6022C7.5 11.326 7.72386 11.1022 8 11.1022C8.27614 11.1022 8.5 11.326 8.5 11.6022Z" fill="currentColor"/>
</svg>
