<svg width="16" height="16" viewBox="0 0 16 16" xmlns="http://www.w3.org/2000/svg">
<path d="M9.08797 5.9214C8.85531 5.29421 8.27732 4.93481 7.74637 5.04355C7.1814 5.15927 6.77738 5.36719 6.29775 5.80193L5.62616 5.06101C6.22638 4.51696 6.7898 4.21871 7.54572 4.06389C8.67915 3.83175 9.66731 4.60793 10.0255 5.5736C10.3877 6.54976 10.0973 7.64818 9.30004 8.31785L9.08192 8.50107C8.65919 8.85617 8.41508 9.38001 8.41508 9.93211V10.1445H7.41508V9.93211C7.41508 9.08461 7.7898 8.28047 8.43873 7.73537L8.65685 7.55215C9.13059 7.1542 9.30316 6.50148 9.08797 5.9214Z" fill="currentColor"/>
<path d="M8 12.0146C8.27614 12.0146 8.5 11.7908 8.5 11.5146C8.5 11.2385 8.27614 11.0146 8 11.0146C7.72386 11.0146 7.5 11.2385 7.5 11.5146C7.5 11.7908 7.72386 12.0146 8 12.0146Z" fill="currentColor"/>
<path d="M1.5 7.91211C1.5 4.32226 4.41015 1.41211 8 1.41211C11.5899 1.41211 14.5 4.32226 14.5 7.91211C14.5 11.502 11.5899 14.4121 8 14.4121C4.41015 14.4121 1.5 11.502 1.5 7.91211ZM8 2.41211C4.96243 2.41211 2.5 4.87454 2.5 7.91211C2.5 10.9497 4.96243 13.4121 8 13.4121C11.0376 13.4121 13.5 10.9497 13.5 7.91211C13.5 4.87454 11.0376 2.41211 8 2.41211Z" fill="currentColor"/>
</svg>
