<svg width="16" height="16" viewBox="0 0 16 16" fill="none" xmlns="http://www.w3.org/2000/svg">
<path d="M7.84388 1.32076C7.64862 1.1255 7.33203 1.1255 7.13677 1.32076C6.94151 1.51603 6.94151 1.83261 7.13677 2.02787L8.24674 3.13783H8C4.7724 3.13783 2.15591 5.75432 2.15591 8.98192C2.15591 12.2095 4.7724 14.826 8 14.826C11.2276 14.826 13.8441 12.2095 13.8441 8.98192C13.8441 8.70578 13.6202 8.48192 13.3441 8.48192C13.0679 8.48192 12.8441 8.70578 12.8441 8.98192C12.8441 11.6572 10.6753 13.826 8 13.826C5.32469 13.826 3.15591 11.6572 3.15591 8.98192C3.15591 6.30661 5.32469 4.13783 8 4.13783H8.24673L7.13677 5.24779C6.94151 5.44306 6.94151 5.75964 7.13677 5.9549C7.33203 6.15016 7.64862 6.15016 7.84388 5.9549L9.80739 3.99138C10.0027 3.79612 10.0027 3.47954 9.80739 3.28428L7.84388 1.32076Z" fill="black"/>
</svg>
