<svg width="16" height="16" viewBox="0 0 16 16" xmlns="http://www.w3.org/2000/svg">
<path d="M9.17515 1.91553L14.7247 7.20834L9.17515 12.5012V9.45934C8.22696 9.32385 6.94361 9.37916 5.79012 9.91856C4.5019 10.521 3.32173 11.75 2.96114 14.1574L1.99465 14.2483C1.65359 13.2724 1.39585 11.8273 1.54209 10.3717C1.68863 8.91311 2.24894 7.38718 3.60506 6.35249C5.73533 4.72714 7.98122 4.67502 9.17515 4.79788V1.91553ZM10.1751 4.25115V5.97939L9.58146 5.86615C8.83705 5.72415 6.44827 5.44101 4.21164 7.14751C3.1474 7.95951 2.66649 9.18358 2.53708 10.4717C2.48582 10.9818 2.49099 11.4931 2.53447 11.9779C3.17931 10.4856 4.2162 9.55062 5.36652 9.01271C6.93598 8.27879 8.66326 8.307 9.78262 8.55336L10.1751 8.63976V10.1655L13.2758 7.20834L10.1751 4.25115Z" fill="currentColor"/>
</svg>
