<svg width="16" height="16" viewBox="0 0 16 16" fill="none" xmlns="http://www.w3.org/2000/svg">
<path fill-rule="evenodd" clip-rule="evenodd" d="M9.44796 2.12801C9.44796 1.92728 9.56973 1.7466 9.7558 1.67128C9.94187 1.59595 10.155 1.64103 10.2947 1.78524L14.5758 6.20635C14.7617 6.39829 14.7607 6.70339 14.5736 6.89415L10.2925 11.2593C10.1523 11.4022 9.93965 11.4461 9.75435 11.3704C9.56905 11.2947 9.44796 11.1144 9.44796 10.9143V8.80865C9.29275 8.79314 9.09829 8.77904 8.87479 8.77383C8.27288 8.75981 7.47662 8.81077 6.67368 9.06141C5.87429 9.31094 5.07807 9.75486 4.44991 10.5236C3.82284 11.291 3.33392 12.4179 3.20796 14.0842C3.19117 14.3063 3.02751 14.4895 2.80873 14.5311C2.58995 14.5728 2.37044 14.4625 2.27326 14.2621C1.43202 12.5275 0.984902 9.91513 1.96618 7.74659C2.93893 5.59689 5.23214 4.04838 9.44796 4.1055V2.12801ZM9.94436 7.87921C9.8893 7.87027 9.81072 7.85854 9.71181 7.84644C9.51421 7.82226 9.23428 7.79645 8.89774 7.78861C8.22771 7.773 7.31705 7.8282 6.38003 8.12069C5.43946 8.41429 4.4627 8.95048 3.68679 9.90002C3.21452 10.478 2.8275 11.1959 2.56552 12.0808C2.29192 10.7984 2.31369 9.36908 2.86402 8.15287C3.65624 6.40213 5.62959 4.92125 9.91965 5.10466C10.0539 5.1104 10.1846 5.06109 10.2816 4.96815C10.3786 4.87521 10.4334 4.7467 10.4334 4.61237V3.3452L13.5338 6.54694L10.4334 9.70814V8.45137C10.4334 8.16628 10.226 7.92358 9.94436 7.87921Z" fill="black"/>
</svg>
