<svg width="16" height="16" viewBox="0 0 16 16" xmlns="http://www.w3.org/2000/svg">
<path d="M2 1.5H14V14.5H2V1.5ZM3 2.5V13.5H13V2.5H3Z" fill="currentColor"/>
<path d="M8.20711 4.37438L7.49938 3.66789L5.50142 5.66935L4.49646 4.6744L3.7929 5.38503L5.50556 7.08065L8.20711 4.37438Z" fill="currentColor"/>
<path d="M8 5.875H12V6.875H8V5.875Z" fill="currentColor"/>
<path d="M8 10.125H12V11.125H8V10.125Z" fill="currentColor"/>
<path d="M5.5 10.125C5.22386 10.125 5 10.3489 5 10.625C5 10.9011 5.22386 11.125 5.5 11.125C5.77614 11.125 6 10.9011 6 10.625C6 10.3489 5.77614 10.125 5.5 10.125ZM4 10.625C4 9.79657 4.67157 9.125 5.5 9.125C6.32843 9.125 7 9.79657 7 10.625C7 11.4534 6.32843 12.125 5.5 12.125C4.67157 12.125 4 11.4534 4 10.625Z" fill="currentColor"/>
</svg>
