<svg width="16" height="16" viewBox="0 0 16 16" xmlns="http://www.w3.org/2000/svg">
<path d="M14 1.5H2V14.5H14V1.5ZM8.20711 4.37438L5.50557 7.08065L3.79291 5.38503L4.49647 4.6744L5.50142 5.66935L7.49939 3.66789L8.20711 4.37438ZM8.00001 5.875H12V6.875H8.00001V5.875ZM12 10.125V11.125H8V10.125H12ZM5.5 10.125C5.22386 10.125 5 10.3489 5 10.625C5 10.9011 5.22386 11.125 5.5 11.125C5.77614 11.125 6 10.9011 6 10.625C6 10.3489 5.77614 10.125 5.5 10.125ZM4 10.625C4 9.79657 4.67157 9.125 5.5 9.125C6.32843 9.125 7 9.79657 7 10.625C7 11.4534 6.32843 12.125 5.5 12.125C4.67157 12.125 4 11.4534 4 10.625Z" fill="currentColor"/>
</svg>
