<svg width="16" height="16" viewBox="0 0 16 16" xmlns="http://www.w3.org/2000/svg">
<path d="M14.0023 2.6001H2.00235L2.00235 3.6001L14.0023 3.6001V2.6001Z" fill="currentColor"/>
<path d="M4.99765 5.8667L1.99765 5.8667V6.8667L4.99765 6.8667V5.8667Z" fill="currentColor"/>
<path d="M1.99765 9.13379L4.99765 9.13379V10.1338L1.99765 10.1338V9.13379Z" fill="currentColor"/>
<path d="M7.99765 13.4004V12.4004L1.99765 12.4004V13.4004L7.99765 13.4004Z" fill="currentColor"/>
<path d="M5.99765 8.1001C5.99765 6.1671 7.56465 4.6001 9.49765 4.6001C11.4306 4.6001 12.9977 6.1671 12.9977 8.1001C12.9977 8.88629 12.7384 9.61194 12.3008 10.1962L14.2047 12.1002L13.4976 12.8073L11.5937 10.9033C11.0094 11.3409 10.2838 11.6001 9.49765 11.6001C7.56465 11.6001 5.99765 10.0331 5.99765 8.1001ZM9.49765 5.6001C8.11694 5.6001 6.99765 6.71939 6.99765 8.1001C6.99765 9.48081 8.11694 10.6001 9.49765 10.6001C10.8784 10.6001 11.9977 9.48081 11.9977 8.1001C11.9977 6.71939 10.8784 5.6001 9.49765 5.6001Z" fill="currentColor"/>
</svg>
