<svg width="16" height="16" viewBox="0 0 16 16" fill="none" xmlns="http://www.w3.org/2000/svg">
<path d="M4.64166 4.00488H11.734" stroke="black"/>
<path d="M4.64166 6.06445H8" stroke="black"/>
<path fill-rule="evenodd" clip-rule="evenodd" d="M3.80701 2.41309H13.0236V6.68507H14.0236V1.41309H2.80701V14.547H6.7785V13.547H3.80701V2.41309Z" fill="black"/>
<path fill-rule="evenodd" clip-rule="evenodd" d="M10.3954 7.26807C8.63086 7.26807 7.20044 8.69849 7.20044 10.463C7.20044 12.2275 8.63086 13.658 10.3954 13.658C11.0972 13.658 11.7462 13.4317 12.2733 13.0481L13.8801 14.6548C14.0753 14.8501 14.3919 14.8501 14.5872 14.6548C14.7824 14.4596 14.7824 14.143 14.5872 13.9477L12.9804 12.341C13.364 11.8138 13.5903 11.1648 13.5903 10.463C13.5903 8.69849 12.1599 7.26807 10.3954 7.26807ZM8.20044 10.463C8.20044 9.25078 9.18315 8.26807 10.3954 8.26807C11.6076 8.26807 12.5903 9.25078 12.5903 10.463C12.5903 11.6752 11.6076 12.658 10.3954 12.658C9.18315 12.658 8.20044 11.6752 8.20044 10.463Z" fill="black"/>
</svg>
