<svg width="16" height="16" viewBox="0 0 16 16" xmlns="http://www.w3.org/2000/svg">
<path d="M7.17389 1.64258C4.13632 1.64258 1.67389 4.10501 1.67389 7.14258C1.67389 10.1801 4.13632 12.6426 7.17389 12.6426C8.49665 12.6426 9.71035 12.1756 10.6591 11.3976L13.8262 14.5646L14.5333 13.8575L11.3719 10.6961C12.1841 9.73763 12.6739 8.4973 12.6739 7.14258C12.6739 4.10501 10.2115 1.64258 7.17389 1.64258ZM2.67389 7.14258C2.67389 4.6573 4.68861 2.64258 7.17389 2.64258C9.65917 2.64258 11.6739 4.6573 11.6739 7.14258C11.6739 9.62786 9.65917 11.6426 7.17389 11.6426C4.68861 11.6426 2.67389 9.62786 2.67389 7.14258Z" fill="currentColor"/>
</svg>
