<svg width="16" height="16" viewBox="0 0 16 16" xmlns="http://www.w3.org/2000/svg">
<path d="M13.5 1.5H2.5V14.5H7.25V13.5H3.5V2.5H12.5V7H13.5V1.5Z" fill="currentColor"/>
<path d="M9.5 4.87598H4.5V5.87598H9.5V4.87598Z" fill="currentColor"/>
<path d="M7.5 10.5C7.5 8.84315 8.84315 7.5 10.5 7.5C12.1569 7.5 13.5 8.84315 13.5 10.5C13.5 11.1479 13.2946 11.7479 12.9453 12.2383L14.7071 14.0001L14 14.7072L12.2382 12.9454C11.7478 13.2946 11.1479 13.5 10.5 13.5C8.84315 13.5 7.5 12.1569 7.5 10.5ZM10.5 8.5C9.39543 8.5 8.5 9.39543 8.5 10.5C8.5 11.6046 9.39543 12.5 10.5 12.5C11.6046 12.5 12.5 11.6046 12.5 10.5C12.5 9.39543 11.6046 8.5 10.5 8.5Z" fill="currentColor"/>
</svg>
