<svg width="16" height="16" viewBox="0 0 16 16" fill="none" xmlns="http://www.w3.org/2000/svg">
<path d="M2 6.48765L1.51507 6.3658C1.45776 6.59389 1.56715 6.83109 1.77785 6.93559L2 6.48765ZM2.68845 4.82698L2.84796 4.35311C2.62516 4.27811 2.3802 4.36845 2.25945 4.57015L2.68845 4.82698ZM2 9.51241L1.77785 9.06447C1.56716 9.16896 1.45777 9.40616 1.51508 9.63426L2 9.51241ZM2.68845 11.1731L2.25945 11.4299C2.3802 11.6316 2.62515 11.7219 2.84795 11.6469L2.68845 11.1731ZM4.42099 11.579L4.77454 11.2254L4.42099 11.579ZM4.82694 13.3116L4.35306 13.1521C4.27807 13.3749 4.36841 13.6198 4.5701 13.7406L4.82694 13.3116ZM6.48757 14L6.36572 14.4849C6.59382 14.5423 6.83102 14.4329 6.93551 14.2222L6.48757 14ZM9.51237 14L9.06443 14.2222C9.16892 14.4329 9.40612 14.5423 9.63422 14.485L9.51237 14ZM11.1731 13.3116L11.4299 13.7406C11.6316 13.6198 11.7219 13.3749 11.6469 13.1521L11.1731 13.3116ZM11.579 11.579L11.9325 11.9326H11.9325L11.579 11.579ZM13.3116 11.1731L13.1521 11.6469C13.3749 11.7219 13.6198 11.6316 13.7406 11.4299L13.3116 11.1731ZM14 9.51243L14.485 9.63428C14.5423 9.40618 14.4329 9.16897 14.2222 9.06448L14 9.51243ZM14 6.48762L14.2222 6.93557C14.4329 6.83108 14.5423 6.59387 14.485 6.36577L14 6.48762ZM13.3116 4.82696L13.7406 4.57013C13.6198 4.36842 13.3749 4.27808 13.1521 4.35309L13.3116 4.82696ZM11.579 4.42104L11.9325 4.06748L11.9325 4.06748L11.579 4.42104ZM11.173 2.68843L11.6469 2.84795C11.7219 2.62515 11.6316 2.38019 11.4299 2.25943L11.173 2.68843ZM9.51238 2L9.63422 1.51507C9.40612 1.45776 9.16892 1.56716 9.06443 1.77787L9.51238 2ZM6.48756 2.00003L6.9355 1.77789C6.83101 1.56719 6.5938 1.45779 6.3657 1.51511L6.48756 2.00003ZM4.82696 2.68846L4.57013 2.25947C4.36843 2.38022 4.27809 2.62518 4.35309 2.84798L4.82696 2.68846ZM4.42103 4.42104L4.77458 4.7746H4.77458L4.42103 4.42104ZM2.48493 6.6095C2.62156 6.06573 2.83658 5.55296 3.11745 5.08381L2.25945 4.57015C1.92914 5.1219 1.67597 5.72546 1.51507 6.3658L2.48493 6.6095ZM3.43852 8.00003C3.43852 7.13992 2.94196 6.3967 2.22215 6.03971L1.77785 6.93559C2.17042 7.13028 2.43852 7.53431 2.43852 8.00003H3.43852ZM2.22216 9.96034C2.94197 9.60335 3.43852 8.86014 3.43852 8.00003H2.43852C2.43852 8.46575 2.17042 8.86978 1.77785 9.06447L2.22216 9.96034ZM3.11745 10.9162C2.83658 10.4471 2.62156 9.93431 2.48493 9.39056L1.51508 9.63426C1.67598 10.2746 1.92914 10.8781 2.25945 11.4299L3.11745 10.9162ZM4.77454 11.2254C4.16653 10.6174 3.2902 10.443 2.52895 10.6992L2.84795 11.6469C3.26313 11.5072 3.73822 11.6033 4.06744 11.9326L4.77454 11.2254ZM5.30081 13.4711C5.55705 12.7098 5.38257 11.8335 4.77454 11.2254L4.06744 11.9326C4.39666 12.2618 4.49281 12.7369 4.35306 13.1521L5.30081 13.4711ZM6.60943 13.5151C6.06567 13.3785 5.55291 13.1634 5.08377 12.8826L4.5701 13.7406C5.12184 14.0709 5.72539 14.324 6.36572 14.4849L6.60943 13.5151ZM7.99997 12.5615C7.13984 12.5615 6.39662 13.058 6.03963 13.7779L6.93551 14.2222C7.13021 13.8296 7.53424 13.5615 7.99997 13.5615V12.5615ZM9.96032 13.7779C9.60334 13.0581 8.86011 12.5615 7.99997 12.5615V13.5615C8.46571 13.5615 8.86974 13.8296 9.06443 14.2222L9.96032 13.7779ZM10.9162 12.8826C10.4471 13.1635 9.9343 13.3785 9.39053 13.5151L9.63422 14.485C10.2746 14.3241 10.8781 14.0709 11.4299 13.7406L10.9162 12.8826ZM11.2254 11.2254C10.6174 11.8335 10.4429 12.7098 10.6992 13.4711L11.6469 13.1521C11.5072 12.7369 11.6033 12.2618 11.9325 11.9326L11.2254 11.2254ZM13.4711 10.6992C12.7098 10.4429 11.8335 10.6174 11.2254 11.2254L11.9325 11.9326C12.2618 11.6033 12.7369 11.5072 13.1521 11.6469L13.4711 10.6992ZM13.5151 9.39058C13.3785 9.93434 13.1635 10.4471 12.8826 10.9162L13.7406 11.4299C14.0709 10.8782 14.3241 10.2746 14.485 9.63428L13.5151 9.39058ZM12.5615 8.00003C12.5615 8.86017 13.0581 9.6034 13.7779 9.96037L14.2222 9.06448C13.8296 8.8698 13.5615 8.46576 13.5615 8.00003H12.5615ZM13.7779 6.03968C13.0581 6.39665 12.5615 7.13988 12.5615 8.00003H13.5615C13.5615 7.53429 13.8296 7.13025 14.2222 6.93557L13.7779 6.03968ZM12.8826 5.08379C13.1635 5.55294 13.3785 6.06571 13.5151 6.60947L14.485 6.36577C14.3241 5.72543 14.0709 5.12187 13.7406 4.57013L12.8826 5.08379ZM11.2254 4.77459C11.8335 5.38263 12.7098 5.55711 13.4711 5.30083L13.1521 4.35309C12.7369 4.49286 12.2618 4.39672 11.9325 4.06748L11.2254 4.77459ZM10.6992 2.52891C10.4429 3.29019 10.6174 4.16655 11.2254 4.77459L11.9325 4.06748C11.6033 3.73825 11.5071 3.26314 11.6469 2.84795L10.6992 2.52891ZM9.39053 2.48493C9.93429 2.62155 10.4471 2.83657 10.9162 3.11743L11.4299 2.25943C10.8781 1.92913 10.2746 1.67597 9.63422 1.51507L9.39053 2.48493ZM7.99996 3.43859C8.86011 3.43859 9.60335 2.94199 9.96032 2.22213L9.06443 1.77787C8.86974 2.17046 8.4657 2.43859 7.99996 2.43859V3.43859ZM6.03962 2.22217C6.3966 2.94201 7.13983 3.43859 7.99996 3.43859V2.43859C7.53422 2.43859 7.13019 2.17047 6.9355 1.77789L6.03962 2.22217ZM5.08379 3.11746C5.55292 2.83661 6.06567 2.62159 6.60941 2.48495L6.3657 1.51511C5.72539 1.67601 5.12186 1.92916 4.57013 2.25947L5.08379 3.11746ZM4.77458 4.7746C5.38261 4.16657 5.55709 3.29022 5.30084 2.52895L4.35309 2.84798C4.49285 3.26316 4.3967 3.73826 4.06747 4.06749L4.77458 4.7746ZM2.52894 5.30086C3.29021 5.5571 4.16655 5.38262 4.77458 4.7746L4.06747 4.06749C3.73824 4.39672 3.26314 4.49286 2.84796 4.35311L2.52894 5.30086ZM9.21429 8C9.21429 8.67063 8.67063 9.21429 8 9.21429V10.2143C9.22292 10.2143 10.2143 9.22292 10.2143 8H9.21429ZM8 6.78571C8.67063 6.78571 9.21429 7.32937 9.21429 8H10.2143C10.2143 6.77708 9.22292 5.78571 8 5.78571V6.78571ZM6.78571 8C6.78571 7.32937 7.32937 6.78571 8 6.78571V5.78571C6.77708 5.78571 5.78571 6.77708 5.78571 8H6.78571ZM8 9.21429C7.32937 9.21429 6.78571 8.67063 6.78571 8H5.78571C5.78571 9.22292 6.77708 10.2143 8 10.2143V9.21429Z" fill="black"/>
</svg>
