<svg width="16" height="16" viewBox="0 0 16 16" xmlns="http://www.w3.org/2000/svg">
<path d="M9.49694 1.67335C9.44693 2.45655 8.79585 3.0763 8.00003 3.0763C7.2042 3.0763 6.55312 2.45654 6.50312 1.67334C5.80582 1.83769 5.15187 2.11433 4.56141 2.48313C5.07621 3.07236 5.05288 3.96816 4.49143 4.52961C3.93297 5.08807 3.04372 5.11412 2.4544 4.60777C2.0929 5.19746 1.82282 5.84925 1.66388 6.54341C2.43346 6.60729 3.03812 7.25214 3.03812 8.03821C3.03812 8.8183 2.44263 9.45931 1.68143 9.53146C1.84708 10.2174 2.12153 10.8609 2.48548 11.4427C3.07461 10.9634 3.9427 10.9981 4.49143 11.5468C5.03716 12.0925 5.07448 12.9542 4.60337 13.5431C5.18468 13.9001 5.82645 14.1682 6.50974 14.3285C6.59491 13.5809 7.22964 13.0001 8.00003 13.0001C8.77041 13.0001 9.40514 13.5809 9.49031 14.3285C10.1736 14.1682 10.8154 13.9001 11.3967 13.5431C10.9256 12.9542 10.9629 12.0925 11.5086 11.5468C12.0573 10.9981 12.9254 10.9634 13.5146 11.4427C13.8785 10.8609 14.153 10.2174 14.3186 9.53145C13.5574 9.45929 12.9619 8.81829 12.9619 8.03821C12.9619 7.25215 13.5666 6.60731 14.3362 6.54342C14.1772 5.84926 13.9071 5.19747 13.5456 4.60779C12.9563 5.11413 12.0671 5.08807 11.5086 4.52962C10.9472 3.96817 10.9238 3.07238 11.4386 2.48315C10.8482 2.11434 10.1942 1.8377 9.49694 1.67335ZM8 10.0001C6.89543 10.0001 6 9.10469 6 8.00012C6 6.89556 6.89543 6.00012 8 6.00012C9.10457 6.00012 10 6.89556 10 8.00012C10 9.10469 9.10457 10.0001 8 10.0001Z" fill="currentColor"/>
</svg>
