<svg width="16" height="16" viewBox="0 0 16 16" xmlns="http://www.w3.org/2000/svg">
<path d="M6.27754 1.64331C6.47396 1.58945 6.68343 1.66013 6.80707 1.82199C7.08199 2.18187 7.51398 2.41251 8.00004 2.41251C8.48609 2.41251 8.91807 2.18187 9.193 1.82199C9.31664 1.66014 9.52611 1.58946 9.72254 1.64332C10.25 1.78794 10.7506 1.99727 11.2151 2.26214C11.392 2.36296 11.49 2.56093 11.4631 2.7627C11.4031 3.21145 11.5455 3.67983 11.8891 4.02342C12.2327 4.36701 12.7011 4.5094 13.1498 4.44946C13.3516 4.42251 13.5496 4.52058 13.6504 4.69742C13.9153 5.16199 14.1246 5.66256 14.2692 6.19001C14.3231 6.38644 14.2524 6.5959 14.0905 6.71955C13.7307 6.99447 13.5 7.42645 13.5 7.9125C13.5 8.39854 13.7307 8.83052 14.0905 9.10544C14.2524 9.22909 14.3231 9.43855 14.2692 9.63498C14.1246 10.1624 13.9152 10.663 13.6504 11.1276C13.5495 11.3044 13.3516 11.4025 13.1498 11.3755C12.7011 11.3156 12.2327 11.458 11.8891 11.8016C11.5455 12.1452 11.4031 12.6135 11.4631 13.0623C11.49 13.264 11.392 13.462 11.2151 13.5628C10.7505 13.8277 10.25 14.037 9.72251 14.1817C9.52608 14.2355 9.31662 14.1648 9.19298 14.003C8.91806 13.6431 8.48608 13.4125 8.00004 13.4125C7.51399 13.4125 7.08201 13.6431 6.80709 14.003C6.68345 14.1648 6.47399 14.2355 6.27756 14.1817C5.7501 14.0371 5.24953 13.8277 4.78495 13.5629C4.60811 13.462 4.51005 13.2641 4.537 13.0623C4.59694 12.6135 4.45454 12.1452 4.11096 11.8016L4.46451 11.448L4.11096 11.8016C3.76736 11.458 3.29898 11.3156 2.85022 11.3755C2.64845 11.4025 2.45049 11.3044 2.34966 11.1276C2.08479 10.663 1.87546 10.1625 1.73084 9.635C1.67698 9.43857 1.74766 9.22911 1.90952 9.10546C2.2694 8.83054 2.50004 8.39855 2.50004 7.9125C2.50004 7.42644 2.2694 6.99445 1.90951 6.71953C1.74766 6.59588 1.67698 6.38642 1.73083 6.18998C1.87545 5.66254 2.08478 5.16198 2.34964 4.69741C2.45047 4.52057 2.64844 4.4225 2.85021 4.44946C3.29897 4.50941 3.76736 4.36701 4.11095 4.02342C4.45455 3.67982 4.59694 3.21144 4.537 2.76268C4.51004 2.56091 4.60811 2.36294 4.78495 2.26211C5.24952 1.99725 5.75009 1.78792 6.27754 1.64331ZM5.55015 2.98678C5.54406 3.61787 5.30025 4.24833 4.81806 4.73052C4.33587 5.21272 3.7054 5.45652 3.0743 5.46261C2.9623 5.68733 2.86525 5.92074 2.78444 6.16156C3.22653 6.61215 3.50004 7.23045 3.50004 7.9125C3.50004 8.59454 3.22654 9.21284 2.78445 9.66342C2.86527 9.90425 2.96231 10.1377 3.07432 10.3624C3.70541 10.3685 4.33587 10.6123 4.81806 11.0945C5.30024 11.5767 5.54404 12.2071 5.55015 12.8382C5.77488 12.9502 6.0083 13.0472 6.24914 13.1281C6.69972 12.686 7.31801 12.4125 8.00004 12.4125C8.68206 12.4125 9.30034 12.686 9.75092 13.128C9.99177 13.0472 10.2252 12.9502 10.4499 12.8382C10.456 12.2071 10.6998 11.5766 11.182 11.0945C11.6642 10.6123 12.2946 10.3685 12.9257 10.3624C13.0377 10.1377 13.1348 9.90423 13.2156 9.66339C12.7735 9.21281 12.5 8.59452 12.5 7.9125C12.5 7.23047 12.7735 6.61218 13.2156 6.1616C13.1348 5.92076 13.0377 5.68734 12.9257 5.46261C12.2946 5.45651 11.6642 5.2127 11.182 4.73052C10.6998 4.24834 10.456 3.61789 10.4499 2.9868C10.2252 2.87479 9.99178 2.77774 9.75095 2.69693C9.30036 3.139 8.68207 3.41251 8.00004 3.41251C7.318 3.41251 6.6997 3.139 6.24912 2.69692C6.00829 2.77773 5.77487 2.87477 5.55015 2.98678ZM8.00003 6.4125C7.1716 6.4125 6.50003 7.08407 6.50003 7.9125C6.50003 8.74092 7.1716 9.4125 8.00003 9.4125C8.82846 9.4125 9.50003 8.74092 9.50003 7.9125C9.50003 7.08407 8.82846 6.4125 8.00003 6.4125ZM5.50003 7.9125C5.50003 6.53178 6.61932 5.4125 8.00003 5.4125C9.38074 5.4125 10.5 6.53178 10.5 7.9125C10.5 9.29321 9.38074 10.4125 8.00003 10.4125C6.61932 10.4125 5.50003 9.29321 5.50003 7.9125Z" fill="currentColor"/>
</svg>
