<svg width="16" height="16" viewBox="0 0 16 16" xmlns="http://www.w3.org/2000/svg">
<path d="M5.5 1.41211C3.84315 1.41211 2.5 2.75526 2.5 4.41211C2.5 5.67247 3.27722 6.7513 4.37852 7.19546L3.6306 9.43921C2.42505 9.61776 1.5 10.6569 1.5 11.9121C1.5 13.2928 2.61929 14.4121 4 14.4121C5.38071 14.4121 6.5 13.2928 6.5 11.9121C6.5 10.7613 5.72243 9.79211 4.66402 9.50125L5.36144 7.40897C5.40737 7.41105 5.45356 7.41211 5.5 7.41211C6.34017 7.41211 7.09967 7.06674 7.64428 6.51022L9.59619 8.22297C9.53355 8.44188 9.5 8.67308 9.5 8.91211C9.5 10.2928 10.6193 11.4121 12 11.4121C13.3807 11.4121 14.5 10.2928 14.5 8.91211C14.5 7.5314 13.3807 6.41211 12 6.41211C11.2268 6.41211 10.5356 6.76312 10.077 7.31448L8.21812 5.68336C8.39896 5.29737 8.5 4.86654 8.5 4.41211C8.5 2.75526 7.15685 1.41211 5.5 1.41211ZM3.9898 10.4121C3.99667 10.4123 4.00354 10.4123 4.01038 10.4121C4.83403 10.4177 5.5 11.0871 5.5 11.9121C5.5 12.7405 4.82843 13.4121 4 13.4121C3.17157 13.4121 2.5 12.7405 2.5 11.9121C2.5 11.0871 3.16606 10.4176 3.9898 10.4121ZM3.5 4.41211C3.5 3.30754 4.39543 2.41211 5.5 2.41211C6.60457 2.41211 7.5 3.30754 7.5 4.41211C7.5 5.51668 6.60457 6.41211 5.5 6.41211C4.39543 6.41211 3.5 5.51668 3.5 4.41211ZM10.5 8.91211C10.5 8.08368 11.1716 7.41211 12 7.41211C12.8284 7.41211 13.5 8.08368 13.5 8.91211C13.5 9.74054 12.8284 10.4121 12 10.4121C11.1716 10.4121 10.5 9.74054 10.5 8.91211Z" fill="currentColor"/>
</svg>
