<svg width="16" height="16" viewBox="0 0 16 16" xmlns="http://www.w3.org/2000/svg">
<path d="M8.43686 5.86732C8.51965 5.59275 8.56415 5.30157 8.56415 5C8.56415 3.34315 7.221 2 5.56415 2C3.90729 2 2.56415 3.34315 2.56415 5C2.56415 6.21935 3.29162 7.2688 4.33622 7.738L3.63492 9.84189C3.61739 9.89449 3.60909 9.94795 3.60913 10.0005C3.59418 10.0002 3.57918 10 3.56415 10C2.45958 10 1.56415 10.8954 1.56415 12C1.56415 13.1046 2.45958 14 3.56415 14C4.66872 14 5.56415 13.1046 5.56415 12C5.56415 11.2498 5.15115 10.5962 4.54013 10.2539C4.55761 10.2242 4.57226 10.1922 4.58361 10.1581L5.30661 7.9891C5.3915 7.99632 5.47739 8 5.56415 8C6.55021 8 7.42516 7.52427 7.97199 6.78981L9.60952 8.22669C9.49743 8.51071 9.43585 8.82019 9.43585 9.14404C9.43585 10.5248 10.5551 11.644 11.9359 11.644C13.3166 11.644 14.4359 10.5248 14.4359 9.14404C14.4359 7.76333 13.3166 6.64404 11.9359 6.64404C11.2427 6.64404 10.6155 6.9261 10.1627 7.38169L8.43686 5.86732Z" fill="currentColor"/>
</svg>
