<svg width="16" height="16" viewBox="0 0 16 16" xmlns="http://www.w3.org/2000/svg">
<path d="M8.5 6.21729V1.21729H7.5V6.21729H8.5Z" fill="currentColor"/>
<path d="M5.38631 3.43153L5.81784 3.17898L5.31274 2.31592L4.88121 2.56847C2.98958 3.67552 1.5 5.45123 1.5 7.93068C1.5 11.5534 4.40475 14.5 8 14.5C11.5953 14.5 14.5 11.5534 14.5 7.93068C14.5 6.65479 14.1744 5.57219 13.5667 4.67028C12.9616 3.77224 12.0963 3.08185 11.0591 2.55433L10.6134 2.32767L10.1601 3.21902L10.6058 3.44568C11.5306 3.91606 12.2492 4.5045 12.7374 5.22905C13.2229 5.94975 13.5 6.83354 13.5 7.93068C13.5 11.012 11.0322 13.5 8 13.5C4.96783 13.5 2.5 11.012 2.5 7.93068C2.5 5.9174 3.6915 4.4234 5.38631 3.43153Z" fill="currentColor"/>
</svg>
