<svg width="16" height="16" viewBox="0 0 16 16" fill="none" xmlns="http://www.w3.org/2000/svg">
<path d="M7.56796 2.49591C7.76082 2.16477 8.2392 2.16478 8.43207 2.49591L10.0104 5.20569C10.081 5.32699 10.1994 5.41301 10.3366 5.44272L13.4015 6.1064C13.776 6.18751 13.9238 6.64247 13.6685 6.92822L11.5791 9.26665C11.4855 9.37133 11.4403 9.5105 11.4545 9.65016L11.7704 12.7701C11.809 13.1514 11.422 13.4326 11.0713 13.278L8.20164 12.0135C8.07318 11.9569 7.92684 11.9569 7.79839 12.0135L4.92874 13.278C4.57807 13.4326 4.19106 13.1514 4.22966 12.7701L4.54555 9.65016C4.55969 9.5105 4.51447 9.37133 4.42094 9.26665L2.33151 6.92822C2.07618 6.64247 2.22401 6.18751 2.59854 6.1064L5.66341 5.44272C5.80061 5.41301 5.919 5.32699 5.98965 5.20569L7.56796 2.49591Z" fill="black"/>
</svg>
