<svg width="16" height="16" viewBox="0 0 16 16" xmlns="http://www.w3.org/2000/svg">
<path d="M9.29365 12.4893C9.19736 13.5516 9.1114 14.5 8 14.5C4.41015 14.5 1.5 11.5899 1.5 8C1.5 4.41015 4.41015 1.5 8 1.5C11.5899 1.5 14.5 4.41015 14.5 8C14.5 8.94234 13.3513 9.17683 12.1754 9.41686C11.2888 9.59784 10.3868 9.78197 9.95 10.275C9.44242 10.8479 9.36519 11.7001 9.29365 12.4893ZM11 4.4112C11 3.58275 10.3285 2.9112 9.5 2.9112C8.67155 2.9112 8 3.58275 8 4.4112C8 5.23965 8.67155 5.9112 9.5 5.9112C10.3285 5.9112 11 5.23965 11 4.4112ZM6.64401 5.90206C6.64401 5.07361 5.97246 4.40206 5.14401 4.40206C4.31556 4.40206 3.64401 5.07361 3.64401 5.90206C3.64401 6.73051 4.31556 7.40206 5.14401 7.40206C5.97246 7.40206 6.64401 6.73051 6.64401 5.90206ZM5.68555 11.9019C6.514 11.9019 7.18555 11.2303 7.18555 10.4019C7.18555 9.57341 6.514 8.90186 5.68555 8.90186C4.8571 8.90186 4.18555 9.57341 4.18555 10.4019C4.18555 11.2303 4.8571 11.9019 5.68555 11.9019Z" fill="currentColor"/>
</svg>
