<svg width="16" height="16" viewBox="0 0 16 16" xmlns="http://www.w3.org/2000/svg">
<path d="M10.5 4.8335C10.5 5.3858 10.0523 5.8335 9.5 5.8335C8.9477 5.8335 8.5 5.3858 8.5 4.8335C8.5 4.2812 8.9477 3.8335 9.5 3.8335C10.0523 3.8335 10.5 4.2812 10.5 4.8335Z" fill="currentColor"/>
<path d="M5.5 7.1665C6.0523 7.1665 6.5 6.7188 6.5 6.1665C6.5 5.6142 6.0523 5.1665 5.5 5.1665C4.9477 5.1665 4.5 5.6142 4.5 6.1665C4.5 6.7188 4.9477 7.1665 5.5 7.1665Z" fill="currentColor"/>
<path d="M7 10C7 10.5523 6.5523 11 6 11C5.4477 11 5 10.5523 5 10C5 9.4477 5.4477 9 6 9C6.5523 9 7 9.4477 7 10Z" fill="currentColor"/>
<path d="M8 1C4.13401 1 1 4.13401 1 8C1 11.866 4.13401 15 8 15C8.3041 15 8.58094 14.9433 8.82297 14.8166C9.06779 14.6884 9.24827 14.5036 9.37929 14.2925C9.62628 13.8943 9.70399 13.3865 9.7519 12.9456C9.76827 12.795 9.78143 12.6494 9.79429 12.5072C9.82275 12.1924 9.8497 11.8945 9.90652 11.5956C9.98643 11.1754 10.1126 10.8454 10.3243 10.6066C10.4796 10.4312 10.7732 10.2808 11.2292 10.1482C11.5495 10.055 11.892 9.98513 12.2545 9.91115C12.4035 9.88073 12.5562 9.84957 12.7118 9.81588C13.2144 9.70706 13.7596 9.56918 14.1826 9.32409C14.634 9.06257 15 8.64278 15 8C15 4.13401 11.866 1 8 1ZM2 8C2 4.68629 4.68629 2 8 2C11.3137 2 14 4.68629 14 8C14 8.18363 13.9243 8.31805 13.6813 8.45883C13.4099 8.61605 13.0081 8.72856 12.5002 8.83852C12.3716 8.86637 12.2356 8.89413 12.0958 8.92268C11.7179 8.99981 11.3122 9.08261 10.95 9.18798C10.4576 9.33118 9.92846 9.54529 9.57574 9.94345C9.19196 10.3767 9.01883 10.9108 8.92413 11.4088C8.85775 11.7579 8.82344 12.136 8.79302 12.4712C8.78123 12.6011 8.77002 12.7247 8.75775 12.8376C8.70914 13.2849 8.6437 13.5813 8.52953 13.7653C8.47997 13.8452 8.42537 13.896 8.3592 13.9306C8.29024 13.9667 8.18016 14 8 14C4.68629 14 2 11.3137 2 8Z" fill="currentColor"/>
</svg>
