<svg width="16" height="16" viewBox="0 0 16 16" xmlns="http://www.w3.org/2000/svg">
<path d="M8 1.34326C6.34315 1.34326 5 2.68641 5 4.34326C5 6.00012 6.34315 7.34326 8 7.34326C9.65685 7.34326 11 6.00012 11 4.34326C11 2.68641 9.65685 1.34326 8 1.34326ZM6 4.34326C6 3.23869 6.89543 2.34326 8 2.34326C9.10457 2.34326 10 3.23869 10 4.34326C10 5.44783 9.10457 6.34326 8 6.34326C6.89543 6.34326 6 5.44783 6 4.34326Z" fill="currentColor"/>
<path d="M5.25 8.48145C4.3536 8.48145 3.51854 8.91379 2.91977 9.63957C2.32326 10.3626 2 11.3259 2 12.3148V14.4814H14V12.3148C14 11.3259 13.6767 10.3626 13.0802 9.63957C12.4815 8.91379 11.6464 8.48145 10.75 8.48145H5.25ZM3.69114 10.2759C4.12383 9.75148 4.68771 9.48145 5.25 9.48145H10.75C11.3123 9.48145 11.8762 9.75148 12.3089 10.2759C12.7438 10.8032 13 11.5355 13 12.3148V13.4814H3V12.3148C3 11.5355 3.2562 10.8032 3.69114 10.2759Z" fill="currentColor"/>
</svg>
