<svg width="16" height="16" viewBox="0 0 16 16" xmlns="http://www.w3.org/2000/svg">
<path d="M9.75 2C8.09315 2 6.75 3.34315 6.75 5C6.75 6.65685 8.09315 8 9.75 8C11.4069 8 12.75 6.65685 12.75 5C12.75 3.34315 11.4069 2 9.75 2ZM7.75 5C7.75 3.89543 8.64543 3 9.75 3C10.8546 3 11.75 3.89543 11.75 5C11.75 6.10457 10.8546 7 9.75 7C8.64543 7 7.75 6.10457 7.75 5Z" fill="currentColor"/>
<path d="M7.5 9C6.74058 9 6.03345 9.35821 5.52686 9.95861C5.02242 10.5565 4.75 11.3517 4.75 12.1667V14H14.75V12.1667C14.75 11.3517 14.4776 10.5565 13.9731 9.95861C13.4665 9.35821 12.7594 9 12 9H7.5ZM6.29116 10.6035C6.62848 10.2037 7.06594 10 7.5 10H12C12.4341 10 12.8715 10.2037 13.2088 10.6035C13.5483 11.0058 13.75 11.5672 13.75 12.1667V13H5.75V12.1667C5.75 11.5672 5.95168 11.0058 6.29116 10.6035Z" fill="currentColor"/>
<path d="M6.86964 6.89809C6.67953 6.9637 6.47124 7.00009 6.24999 7.00009C5.25901 7.00009 4.52777 6.26996 4.52777 5.45463C4.52777 4.63931 5.25901 3.90918 6.24999 3.90918C6.29844 3.90918 6.34626 3.91092 6.39341 3.91434C6.49386 3.57489 6.6444 3.25695 6.83648 2.96908C6.64662 2.92979 6.45022 2.90918 6.24999 2.90918C4.78638 2.90918 3.52777 4.01061 3.52777 5.45463C3.52777 6.89866 4.78638 8.00009 6.24999 8.00009C6.73327 8.00009 7.1942 7.88 7.59484 7.66715C7.31613 7.44905 7.07133 7.18962 6.86964 6.89809Z" fill="currentColor"/>
<path d="M4.86 9.58527C5.17472 9.16565 5.56623 8.83798 6.0048 8.63623H4.25C3.57223 8.63623 2.93202 8.93034 2.46721 9.43741C2.00374 9.94302 1.75 10.6201 1.75 11.318V12.909H4.02777V12.2423C4.02777 12.1308 4.03155 12.0196 4.03904 11.909H2.75V11.318C2.75 10.8586 2.91769 10.4259 3.20436 10.1131C3.4897 9.80186 3.86691 9.63623 4.25 9.63623H4.82248C4.83485 9.61912 4.84736 9.60213 4.86 9.58527Z" fill="currentColor"/>
</svg>
