<svg width="16" height="16" viewBox="0 0 16 16" xmlns="http://www.w3.org/2000/svg">
<path d="M12.75 5C12.75 6.65685 11.4069 8 9.75 8C8.09315 8 6.75 6.65685 6.75 5C6.75 3.34315 8.09315 2 9.75 2C11.4069 2 12.75 3.34315 12.75 5Z" fill="currentColor"/>
<path d="M15 12.8333V14.5H5V12.8333C5 11.9493 5.26339 11.1014 5.73223 10.4763C6.20107 9.85119 6.83696 9.5 7.5 9.5H12.5C13.163 9.5 13.7989 9.85119 14.2678 10.4763C14.7366 11.1014 15 11.9493 15 12.8333Z" fill="currentColor"/>
<path d="M5.15974 9.6001C5.08013 9.68819 5.00421 9.78044 4.93223 9.87641C4.31678 10.697 4 11.7628 4 12.8334V14.0001H1V12.5334C1 11.7555 1.23705 11.0094 1.65901 10.4593C2.08097 9.90914 2.65326 9.6001 3.25 9.6001H5.15974Z" fill="currentColor"/>
<path d="M5.75 5C5.75 4.3359 5.91184 3.7096 6.19823 3.15838C5.91018 3.0559 5.59924 3 5.27495 3C3.78378 3 2.57495 4.18197 2.57495 5.64C2.57495 7.09803 3.78378 8.28 5.27495 8.28C5.8702 8.28 6.42047 8.09165 6.86681 7.77259C6.1752 7.05357 5.75 6.07644 5.75 5Z" fill="currentColor"/>
</svg>
