<svg width="16" height="16" viewBox="0 0 16 16" fill="none" xmlns="http://www.w3.org/2000/svg">
<path d="M9.47376 2.21826C7.93809 2.21826 6.69318 3.46317 6.69318 4.99885C6.69318 6.53452 7.93809 7.77943 9.47376 7.77943C11.0094 7.77943 12.2543 6.53452 12.2543 4.99885C12.2543 3.46317 11.0094 2.21826 9.47376 2.21826ZM7.69318 4.99885C7.69318 4.01546 8.49037 3.21826 9.47376 3.21826C10.4571 3.21826 11.2543 4.01546 11.2543 4.99885C11.2543 5.98223 10.4571 6.77943 9.47376 6.77943C8.49037 6.77943 7.69318 5.98223 7.69318 4.99885Z" fill="black"/>
<path d="M7.14242 8.47972C6.3579 8.47972 5.62944 8.85651 5.10885 9.48474C4.59049 10.1103 4.31097 10.9416 4.31097 11.7932V13.1999C4.31097 13.4761 4.53483 13.6999 4.81097 13.6999H14.1368C14.4129 13.6999 14.6368 13.4761 14.6368 13.1999V11.7932C14.6368 10.9416 14.3572 10.1103 13.8389 9.48474C13.3183 8.85651 12.5898 8.47972 11.8053 8.47972H7.14242ZM5.87883 10.1228C6.2327 9.69577 6.69027 9.47972 7.14242 9.47972H11.8053C12.2575 9.47972 12.715 9.69577 13.0689 10.1228C13.425 10.5525 13.6368 11.1524 13.6368 11.7932V12.6999H5.31097V11.7932C5.31097 11.1524 5.52272 10.5525 5.87883 10.1228Z" fill="black"/>
<path d="M7.03389 7.30371C6.64157 7.56191 6.17188 7.71215 5.66711 7.71215C4.29227 7.71215 3.17773 6.59762 3.17773 5.22277C3.17773 3.84793 4.29227 2.7334 5.66711 2.7334C6.06731 2.7334 6.44544 2.82783 6.78046 2.99563C6.58189 3.26217 6.42195 3.5592 6.30894 3.8784C6.11458 3.78545 5.89692 3.7334 5.66711 3.7334C4.84455 3.7334 4.17773 4.40021 4.17773 5.22277C4.17773 6.04533 4.84455 6.71215 5.66711 6.71215C5.95947 6.71215 6.23214 6.62792 6.4622 6.48239C6.6114 6.78468 6.80477 7.06127 7.03389 7.30371Z" fill="black"/>
<path d="M1.59955 12.8767H3.41289V11.8767H2.09955V11.1496C2.09955 10.6041 2.27993 10.0956 2.58021 9.7332C2.87825 9.37354 3.26009 9.19534 3.63329 9.19534H4.1648C4.23572 9.09043 4.31128 8.98945 4.39131 8.89286C4.62275 8.61357 4.88466 8.3795 5.1676 8.19534H3.63329C2.92773 8.19534 2.27499 8.53428 1.81023 9.09514C1.3477 9.65329 1.09955 10.3933 1.09955 11.1496V12.3767C1.09955 12.6528 1.32341 12.8767 1.59955 12.8767Z" fill="black"/>
</svg>
