<svg width="16" height="16" viewBox="0 0 16 16" xmlns="http://www.w3.org/2000/svg">
<path d="M1.76987 3.75391C1.76987 2.64934 2.6653 1.75391 3.76987 1.75391C4.87444 1.75391 5.76987 2.64934 5.76987 3.75391C5.76987 4.12037 5.6713 4.46382 5.49924 4.75918L11.2454 10.5054C11.5361 10.3406 11.8721 10.2466 12.2301 10.2466C13.3347 10.2466 14.2301 11.142 14.2301 12.2466C14.2301 13.3512 13.3347 14.2466 12.2301 14.2466C11.1256 14.2466 10.2301 13.3512 10.2301 12.2466C10.2301 11.8628 10.3382 11.5043 10.5256 11.1998L4.79651 5.47065C4.49639 5.65051 4.14521 5.75391 3.76987 5.75391C2.6653 5.75391 1.76987 4.85848 1.76987 3.75391ZM3.76987 2.75391C3.21758 2.75391 2.76987 3.20162 2.76987 3.75391C2.76987 4.30619 3.21758 4.75391 3.76987 4.75391C4.32215 4.75391 4.76987 4.30619 4.76987 3.75391C4.76987 3.20162 4.32215 2.75391 3.76987 2.75391ZM11.2301 12.2466C11.2301 12.7989 11.6778 13.2466 12.2301 13.2466C12.7824 13.2466 13.2301 12.7989 13.2301 12.2466C13.2301 11.6943 12.7824 11.2466 12.2301 11.2466C11.6778 11.2466 11.2301 11.6943 11.2301 12.2466Z" fill="currentColor"/>
</svg>
