<svg width="16" height="16" viewBox="0 0 16 16" xmlns="http://www.w3.org/2000/svg">
<path d="M1.50002 3.5C1.50002 2.39543 2.39545 1.5 3.50002 1.5C4.43193 1.5 5.21499 2.13739 5.43701 3H10.563C10.785 2.13739 11.5681 1.5 12.5 1.5C13.6046 1.5 14.5 2.39543 14.5 3.5C14.5 4.43193 13.8626 5.21498 13 5.437V10.563C13.8626 10.785 14.5 11.5681 14.5 12.5C14.5 13.6046 13.6046 14.5 12.5 14.5C11.5681 14.5 10.785 13.8626 10.563 13H5.43701C5.21499 13.8626 4.43193 14.5 3.50002 14.5C2.39545 14.5 1.50002 13.6046 1.50002 12.5C1.50002 11.5681 2.13739 10.785 3 10.563V5.43699C2.13739 5.21496 1.50002 4.43191 1.50002 3.5ZM4 5.437V10.563C4.70281 10.7439 5.25612 11.2972 5.43701 12H10.563C10.7439 11.2972 11.2972 10.7439 12 10.563V5.43699C11.2972 5.25609 10.7439 4.7028 10.563 4H5.43701C5.25612 4.70281 4.70281 5.25611 4 5.437ZM3.50002 2.5C2.94773 2.5 2.50002 2.94772 2.50002 3.5C2.50002 4.05228 2.94773 4.5 3.50002 4.5C4.0523 4.5 4.50002 4.05228 4.50002 3.5C4.50002 2.94772 4.0523 2.5 3.50002 2.5ZM3.50002 11.5C2.94773 11.5 2.50002 11.9477 2.50002 12.5C2.50002 13.0523 2.94773 13.5 3.50002 13.5C4.0523 13.5 4.50002 13.0523 4.50002 12.5C4.50002 11.9477 4.0523 11.5 3.50002 11.5ZM11.5 12.5C11.5 13.0523 11.9477 13.5 12.5 13.5C13.0523 13.5 13.5 13.0523 13.5 12.5C13.5 11.9477 13.0523 11.5 12.5 11.5C11.9477 11.5 11.5 11.9477 11.5 12.5ZM12.5 2.5C11.9477 2.5 11.5 2.94772 11.5 3.5C11.5 4.05228 11.9477 4.5 12.5 4.5C13.0523 4.5 13.5 4.05228 13.5 3.5C13.5 2.94772 13.0523 2.5 12.5 2.5Z" fill="currentColor"/>
</svg>
