<svg width="16" height="16" viewBox="0 0 16 16" xmlns="http://www.w3.org/2000/svg">
<path d="M2.35793 6.82499C5.47395 3.78574 10.526 3.78574 13.6421 6.82499L14 7.1741L14.7159 6.47587L14.3579 6.12676C10.8465 2.70189 5.15345 2.70189 1.64205 6.12676L1.28412 6.47587L1.99999 7.1741L2.35793 6.82499Z" fill="currentColor"/>
<path d="M4.35793 8.77564C6.36938 6.81374 9.6306 6.81374 11.6421 8.77564L12 9.12475L12.7159 8.42652L12.3579 8.0774C9.9511 5.72989 6.04888 5.72989 3.64205 8.0774L3.28412 8.42652L3.99999 9.12475L4.35793 8.77564Z" fill="currentColor"/>
<path d="M9.64205 10.7263C8.73517 9.84175 7.26481 9.84175 6.35793 10.7263L5.99999 11.0754L5.28412 10.3772L5.64205 10.0281C6.94431 8.75789 9.05567 8.75789 10.3579 10.0281L10.7159 10.3772L9.99999 11.0754L9.64205 10.7263Z" fill="currentColor"/>
<path d="M7.29288 12.934C7.68341 13.3149 8.31657 13.3149 8.7071 12.934C9.09762 12.5531 9.09762 11.9355 8.7071 11.5546C8.31657 11.1737 7.68341 11.1737 7.29288 11.5546C6.90236 11.9355 6.90236 12.5531 7.29288 12.934Z" fill="currentColor"/>
</svg>
