<svg width="16" height="16" viewBox="0 0 16 16" xmlns="http://www.w3.org/2000/svg">
<path d="M2.14645 3.35359L11.6465 12.8536L12.3536 12.1465L2.85356 2.64648L2.14645 3.35359Z" fill="currentColor"/>
<path d="M11.6421 8.77519C10.693 7.84954 9.46576 7.36062 8.22283 7.30845L7.27248 6.3581C9.08247 6.14945 10.9691 6.7224 12.3579 8.07696L12.7159 8.42608L12 9.12431L11.6421 8.77519Z" fill="currentColor"/>
<path d="M5.10496 7.019L5.84781 7.76186C5.30812 8.0038 4.8025 8.34158 4.35793 8.77519L3.99999 9.12431L3.28412 8.42608L3.64205 8.07696C4.08521 7.64472 4.57907 7.29207 5.10496 7.019Z" fill="currentColor"/>
<path d="M13.6421 6.8245C11.5104 4.74534 8.47262 4.08854 5.76849 4.8541L4.97947 4.06509C8.14774 2.96563 11.8219 3.65269 14.3579 6.12627L14.7159 6.47538L14 7.17361L13.6421 6.8245Z" fill="currentColor"/>
<path d="M3.79649 5.71054L3.07441 4.98846C2.5678 5.31264 2.08738 5.69191 1.64205 6.12627L1.28412 6.47538L1.99999 7.17361L2.35793 6.8245C2.80188 6.39148 3.28513 6.02016 3.79649 5.71054Z" fill="currentColor"/>
<path d="M8.15339 10.0674L7.24503 9.15908C6.65758 9.29166 6.09983 9.5812 5.64205 10.0277L5.28412 10.3768L5.99999 11.075L6.35793 10.7259C6.85041 10.2456 7.50905 10.0261 8.15339 10.0674Z" fill="currentColor"/>
<path d="M7.29288 12.9335C7.68341 13.3144 8.31657 13.3144 8.7071 12.9335C9.09762 12.5526 9.09762 11.9351 8.7071 11.5542C8.31657 11.1733 7.68341 11.1733 7.29288 11.5542C6.90236 11.9351 6.90236 12.5526 7.29288 12.9335Z" fill="currentColor"/>
</svg>
