<svg width="16" height="16" viewBox="0 0 16 16" xmlns="http://www.w3.org/2000/svg">
<path d="M7.31547 2.469C8.724 0.91141 10.973 0.568386 12.7485 1.50379L13.3556 1.8236L10.586 4.53395L11.2855 5.24865L14.0831 2.51076L14.4166 3.01846C15.5144 4.68977 15.3951 6.95269 13.9908 8.50552C12.7159 9.91533 10.7526 10.33 9.07518 9.70265L3.43751 15.2198L0.639801 12.361L6.34234 6.78035C5.90687 5.32379 6.22013 3.68027 7.31547 2.469ZM11.6203 2.12257C10.3769 1.76616 8.98292 2.11602 8.05718 3.13973C7.1439 4.14966 6.92846 5.54702 7.38388 6.73938L7.50089 7.04575L2.05393 12.3763L3.45279 13.8057L8.86005 8.51401L9.17378 8.66041C10.5299 9.29326 12.1938 9.00184 13.2491 7.8348C14.1936 6.79032 14.3914 5.33122 13.8739 4.11474L11.2702 6.66278L9.1719 4.51867L11.6203 2.12257Z" fill="currentColor"/>
</svg>
