<svg width="16" height="16" viewBox="0 0 16 16" fill="none" xmlns="http://www.w3.org/2000/svg">
<path d="M12.7529 2.10862L10.1504 4.69066L11.2604 5.8095L13.8627 3.2276L14.149 3.91301C14.3569 4.41092 14.4666 4.96083 14.4571 5.53885C14.4199 7.81972 12.546 9.71751 10.2647 9.78676C9.83321 9.79986 9.4164 9.74652 9.02433 9.63519L3.97338 14.6463L1.39917 12.0516L6.37346 7.11656C6.228 6.68782 6.15316 6.2257 6.16103 5.744C6.19829 3.46312 8.07216 1.56534 10.3535 1.49609C10.9651 1.47752 11.5471 1.59246 12.0708 1.81663L12.7529 2.10862ZM10.9144 2.52407C10.7426 2.50003 10.5654 2.49011 10.3838 2.49563C8.6355 2.5487 7.18941 4.01443 7.16089 5.76034C7.15335 6.22208 7.24546 6.65422 7.41537 7.03903L7.5543 7.35368L2.81337 12.0572L3.97898 13.2321L8.7648 8.48403L9.06502 8.59673C9.42278 8.73104 9.81698 8.79989 10.2344 8.78722C11.9827 8.73415 13.4287 7.26842 13.4573 5.52251C13.4598 5.36609 13.4509 5.21307 13.4315 5.06415L11.2548 7.22373L8.73627 4.68506L10.9144 2.52407Z" fill="black"/>
</svg>
