<svg width="16" height="16" viewBox="0 0 16 16" xmlns="http://www.w3.org/2000/svg">
<path d="M7.5 6.4126H10.1008V7.4126H7.5V10.0136H6.5V7.4126H3.89923V6.4126H6.5V3.81201H7.5V6.4126Z" fill="currentColor"/>
<path d="M7 1.4126C3.96243 1.4126 1.5 3.87503 1.5 6.9126C1.5 9.95016 3.96243 12.4126 7 12.4126C8.33877 12.4126 9.56582 11.9343 10.5196 11.1392L14 14.6196L14.7071 13.9125L11.2267 10.4321C12.0217 9.47834 12.5 8.25133 12.5 6.9126C12.5 3.87503 10.0376 1.4126 7 1.4126ZM2.5 6.9126C2.5 4.42732 4.51472 2.4126 7 2.4126C9.48528 2.4126 11.5 4.42732 11.5 6.9126C11.5 9.39788 9.48528 11.4126 7 11.4126C4.51472 11.4126 2.5 9.39788 2.5 6.9126Z" fill="currentColor"/>
</svg>
